<svg xmlns="http://www.w3.org/2000/svg" width="68.3" height="20.307" viewBox="0 0 68.3 20.307"><g transform="translate(6050.961 -1869.636) rotate(90)"><path d="M263.329.606a1.728,1.728,0,0,1,2.323.689,1.679,1.679,0,0,1-.7,2.29,1.728,1.728,0,0,1-2.323-.69,1.679,1.679,0,0,1,.7-2.289Z" transform="translate(1869.31 6262.909) rotate(-90)" fill="#fff"/><path d="M265.5,25.47h-2.051a.681.681,0,0,0-.682.668V40.169a.681.681,0,0,0,.682.674H265.5a.681.681,0,0,0,.684-.674V26.138a.681.681,0,0,0-.684-.668" transform="translate(1848.991 6263.187) rotate(-90)" fill="#fff"/><path d="M66.043,13.412c.015.044.035.085.052.125h0c.015.044.027.085.042.129A10.222,10.222,0,0,0,79.2,19.63,9.994,9.994,0,0,0,85.372,6.818c-.017-.044-.036-.085-.054-.127h0c-.015-.044-.029-.087-.044-.129A10.222,10.222,0,0,0,72.213.6,9.989,9.989,0,0,0,66.043,13.412ZM82.261,7.634c.015.044.025.087.04.131h0c.017.042.036.081.052.125a6.9,6.9,0,0,1-4.217,8.866A7.052,7.052,0,0,1,69.142,12.6c-.014-.044-.026-.088-.041-.131h0c-.017-.042-.037-.081-.052-.125a6.9,6.9,0,0,1,4.28-8.7A7.057,7.057,0,0,1,82.261,7.634Z" transform="translate(1869.646 6103.762) rotate(-90)" fill="#fff"/><path d="M339.078,44.59a1.715,1.715,0,0,1,1.577,1.058,1.674,1.674,0,0,1-.391,1.841,1.734,1.734,0,0,1-1.875.346,1.687,1.687,0,0,1,.689-3.245Z" transform="translate(1833.491 6323.441) rotate(-90)" fill="#fff"/><path d="M307.721,17.816a6.923,6.923,0,1,1,0-13.844V.82A10.147,10.147,0,0,0,297.5,10.894,10.149,10.149,0,0,0,307.721,20.97Z" transform="translate(1868.973 6291.246) rotate(-90)" fill="#fff"/><path d="M9.851,17.816a6.923,6.923,0,1,1,0-13.844V.82A10.147,10.147,0,0,0-.37,10.894,10.149,10.149,0,0,0,9.851,20.97Z" transform="translate(1868.973 6050.591) rotate(-90)" fill="#fff"/><path d="M189.37,17.252a6.923,6.923,0,1,0,0-13.844V.26a10.147,10.147,0,0,1,10.221,10.074A10.149,10.149,0,0,1,189.37,20.41Z" transform="translate(1869.427 6203.886) rotate(-90)" fill="#fff"/><path d="M189.37,42.58v3.437a1.719,1.719,0,0,0,0-3.437Z" transform="translate(1835.12 6203.886) rotate(-90)" fill="#fff"/></g></svg>