<svg xmlns="http://www.w3.org/2000/svg" width="47" height="14" viewBox="0 0 47 14"><g><g opacity=".5"><g opacity=".5"><g opacity=".5"><path fill="#f5f5f5" d="M36.143 3.326h-1.392a.464.464 0 0 0-.464.464v9.675c0 .255.209.464.464.464h1.392a.465.465 0 0 0 .464-.464V3.789a.465.465 0 0 0-.464-.463"/></g></g><g opacity=".5"><path fill="#f5f5f5" d="M19.958 5.27c.01.03.017.059.028.089.012.029.025.057.035.087.887 2.452-.407 5.177-2.883 6.07-2.476.896-5.212-.372-6.099-2.826l-.028-.09c-.011-.028-.025-.056-.035-.086-.887-2.452.407-5.177 2.883-6.07 2.477-.896 5.212.372 6.099 2.826zM8.932 9.253c.01.03.024.058.035.086l.028.09c1.293 3.575 5.266 5.416 8.875 4.112 3.608-1.304 5.487-5.26 4.195-8.834-.01-.03-.024-.058-.036-.087h.002l-.03-.088C20.71.956 16.736-.886 13.127.419 9.52 1.723 7.641 5.678 8.932 9.253z"/></g><g opacity=".5"><g opacity=".5"><path fill="#f5f5f5" d="M45.768 11.826a4.78 4.78 0 0 1-4.727-4.773 4.78 4.78 0 0 1 4.727-4.773V.107a6.947 6.947 0 0 0 0 13.893z"/></g></g><g opacity=".5"><g opacity=".5"><path fill="#f5f5f5" d="M6.88 11.826a4.78 4.78 0 0 1-4.727-4.773A4.78 4.78 0 0 1 6.879 2.28V.107A6.947 6.947 0 0 0 6.88 14z"/></g></g><g opacity=".5"><path fill="#f5f5f5" d="M45.427 5.765a1.166 1.166 0 1 1 .813 2.185 1.166 1.166 0 0 1-.813-2.185z"/></g><g opacity=".5"><path fill="#f5f5f5" d="M34.889.191a1.166 1.166 0 1 1 1.102 2.056A1.166 1.166 0 0 1 34.889.19z"/></g><g opacity=".5"><g opacity=".5"><path fill="#f5f5f5" d="M24.704 11.752a4.78 4.78 0 0 0 4.727-4.773 4.78 4.78 0 0 0-4.727-4.772V.033a6.948 6.948 0 0 1 0 13.894z"/></g></g><g opacity=".5"><path fill="#f5f5f5" d="M24.704 5.56v2.368a1.186 1.186 0 0 0 0-2.369z"/></g></g></g></svg>