<svg xmlns="http://www.w3.org/2000/svg" width="320" height="72" viewBox="0 0 320 72"><defs><clipPath id="k8pua"><path d="M0 71.8V.2h320v71.6z"/></clipPath></defs><g><g><g><g/><g clip-path="url(#k8pua)"><path fill="#fda11e" d="M141.673 66.766c-1.279-.304-2.062-.541-2.062-1.539 0-.887.928-1.352 1.844-1.352h.06c1.242 0 1.874.836 1.927 1.43.01.104.097.184.201.184h.641a.202.202 0 0 0 .201-.22c-.103-1.2-1.163-2.415-2.99-2.415-1.67 0-2.93 1.02-2.93 2.373-.006 1.782 1.457 2.146 2.747 2.467 1.168.29 2.176.54 2.176 1.685 0 .824-.78 1.4-1.897 1.4-1.586 0-2.11-1.034-2.171-1.645a.202.202 0 0 0-.202-.183h-.64a.202.202 0 0 0-.202.218c.092 1.267 1.138 2.63 3.215 2.63 1.932 0 2.942-1.205 2.942-2.396 0-1.955-1.52-2.318-2.86-2.637"/></g><g clip-path="url(#k8pua)"><path fill="#fda11e" d="M169.595 70.754c-2.095 0-3.225-1.766-3.225-3.427 0-1.662 1.13-3.427 3.225-3.427 2.088 0 3.214 1.765 3.214 3.427 0 1.661-1.126 3.427-3.214 3.427m0-7.9c-2.435 0-4.271 1.923-4.271 4.473s1.836 4.473 4.271 4.473c2.422 0 4.248-1.923 4.248-4.473s-1.826-4.473-4.248-4.473"/></g><g clip-path="url(#k8pua)"><path fill="#fda11e" d="M200.48 70.66h-4.328v-7.485a.202.202 0 0 0-.203-.202h-.617a.202.202 0 0 0-.202.202v8.304c0 .111.09.202.202.202h5.148a.203.203 0 0 0 .203-.202v-.617a.203.203 0 0 0-.203-.203"/></g><g clip-path="url(#k8pua)"><path fill="#fda11e" d="M227.126 68.251h-3.475l1.737-3.827zm-1.21-5.16a.202.202 0 0 0-.184-.118h-.688a.203.203 0 0 0-.184.119l-3.772 8.303a.202.202 0 0 0 .184.286h.7c.08 0 .152-.046.185-.12l1.025-2.276h4.413l1.037 2.277a.202.202 0 0 0 .184.12h.688a.202.202 0 0 0 .185-.287z"/></g><g clip-path="url(#k8pua)"><path fill="#fda11e" d="M255.514 65.832c0 1.068-.906 1.814-2.205 1.814h-1.838v-3.628h1.838c1.299 0 2.205.746 2.205 1.814m1.195 5.567c-.614-1.427-1.262-2.354-2.062-2.934 1.169-.424 1.901-1.417 1.901-2.633 0-1.683-1.332-2.86-3.239-2.86h-2.657a.202.202 0 0 0-.202.203v8.304c0 .111.09.202.202.202h.617a.203.203 0 0 0 .202-.202v-2.787h.913c1.447.146 2.46 1.03 3.266 2.868a.204.204 0 0 0 .185.121h.688a.203.203 0 0 0 .186-.282"/></g><g clip-path="url(#k8pua)"><path fill="#fff" d="M84.685 57.172c-1.415 0-2.743-.244-3.982-.73a9.919 9.919 0 0 1-3.252-2.058 10.34 10.34 0 0 1-2.235-3.118c-.56-1.196-.87-2.5-.928-3.916h6.194c.147 1.24.575 2.265 1.283 3.075.708.812 1.68 1.217 2.92 1.217.59 0 1.15-.096 1.681-.288a4.508 4.508 0 0 0 1.416-.819c.412-.354.745-.773.995-1.26s.377-1.025.377-1.616c0-.912-.186-1.659-.555-2.233a4.532 4.532 0 0 0-1.437-1.415 10.642 10.642 0 0 0-1.968-.953c-.723-.265-1.439-.53-2.146-.796a21.878 21.878 0 0 1-1.46-.574c-.471-.207-.959-.427-1.46-.664-1.623-.826-2.81-1.887-3.561-3.186-.753-1.298-1.129-2.875-1.129-4.734 0-1.326.244-2.542.73-3.65a8.98 8.98 0 0 1 1.992-2.875 9.07 9.07 0 0 1 2.986-1.902 9.848 9.848 0 0 1 3.672-.686c1.298 0 2.506.229 3.627.686a8.996 8.996 0 0 1 2.942 1.924A9.538 9.538 0 0 1 93.4 29.5c.501 1.107.782 2.308.841 3.605h-6.017c-.088-1.09-.428-1.96-1.018-2.61-.589-.648-1.445-.973-2.566-.973-.914 0-1.688.303-2.322.907-.635.606-.95 1.379-.95 2.324 0 .766.16 1.392.485 1.879.325.487.745.885 1.26 1.195a8.664 8.664 0 0 0 1.705.774c.62.207 1.223.413 1.813.62 1.209.383 2.323.847 3.34 1.394a10.9 10.9 0 0 1 2.655 1.967 8.078 8.078 0 0 1 1.748 2.72c.413 1.05.618 2.28.618 3.695 0 1.505-.258 2.883-.774 4.138-.516 1.253-1.232 2.322-2.144 3.207-.916.885-2.007 1.577-3.275 2.079-1.268.501-2.64.752-4.114.752"/></g><g clip-path="url(#k8pua)"><path fill="#fff" d="M114.814 24.036l10.524 33.136h-6.151l-7.053-22.208h-.044l-8.21 22.208h-7.388l12.748-33.136z"/></g><g clip-path="url(#k8pua)"><path fill="#fff" d="M179.506 27.84a14.66 14.66 0 0 1 2.344 2.699 17.66 17.66 0 0 1 1.705 3.163 18.345 18.345 0 0 1 1.039 3.451c.237 1.194.354 2.382.354 3.561 0 1.416-.177 2.824-.531 4.225a17.722 17.722 0 0 1-1.526 3.982 15.74 15.74 0 0 1-2.478 3.45 14.029 14.029 0 0 1-3.384 2.633c-1.593.885-3.37 1.468-5.33 1.748-1.963.28-3.858.42-5.686.42h-7.654V51.42h7.477c1.474 0 2.846-.082 4.114-.244 1.269-.162 2.58-.612 3.938-1.35a8.977 8.977 0 0 0 2.146-1.659 9.428 9.428 0 0 0 1.57-2.19c.412-.795.73-1.642.952-2.543.22-.9.33-1.807.33-2.72 0-1.534-.309-3.024-.928-4.469a10.48 10.48 0 0 0-2.655-3.716 9.172 9.172 0 0 0-2.433-1.571 12.99 12.99 0 0 0-2.654-.819 19.55 19.55 0 0 0-2.81-.331 62.687 62.687 0 0 0-2.898-.066h-6.149V23.99h7.521c1.15 0 2.337.052 3.561.155a23.48 23.48 0 0 1 3.63.598c1.193.295 2.336.685 3.426 1.172a12.017 12.017 0 0 1 3.01 1.924"/></g><g clip-path="url(#k8pua)"><path fill="#fff" d="M187.965 23.947h17.873v5.796h-11.724v8.095h6.637v5.753h-6.637v7.83h11.724v5.75h-17.873z"/></g><g clip-path="url(#k8pua)"><path fill="#fff" d="M231.3 57.172h-7.434l-11.944-17.3H218.956c.796 0 1.555-.1 2.279-.308a5.47 5.47 0 0 0 1.879-.929 4.375 4.375 0 0 0 1.261-1.571c.31-.633.465-1.394.465-2.278 0-.855-.163-1.6-.487-2.234a4.535 4.535 0 0 0-1.305-1.57 5.717 5.717 0 0 0-1.88-.93 7.852 7.852 0 0 0-2.212-.31h-10.087v-5.706H219c1.476 0 2.899.14 4.27.42 1.371.28 2.647.877 3.828 1.791a10.054 10.054 0 0 1 2.874 3.562 10.168 10.168 0 0 1 1.018 4.49c0 1.416-.273 2.846-.818 4.291-.546 1.446-1.335 2.655-2.367 3.629-.856.825-1.703 1.423-2.544 1.792-.84.368-1.821.685-2.942.95z"/></g><g clip-path="url(#k8pua)"><path fill="#fff" d="M243.28 57.172c-1.416 0-2.743-.244-3.982-.73a9.924 9.924 0 0 1-3.253-2.058 10.303 10.303 0 0 1-2.233-3.118c-.562-1.196-.87-2.5-.929-3.916h6.193c.147 1.24.576 2.265 1.283 3.075.709.812 1.68 1.217 2.92 1.217a4.9 4.9 0 0 0 1.681-.288 4.474 4.474 0 0 0 1.416-.819c.414-.354.745-.773.995-1.26.251-.487.377-1.025.377-1.616 0-.912-.184-1.659-.553-2.233a4.547 4.547 0 0 0-1.438-1.415 10.578 10.578 0 0 0-1.969-.953 304.2 304.2 0 0 1-2.146-.796 21.579 21.579 0 0 1-1.46-.574c-.471-.207-.959-.427-1.46-.664-1.621-.826-2.81-1.887-3.56-3.186-.752-1.298-1.129-2.875-1.129-4.734 0-1.326.244-2.542.73-3.65a8.99 8.99 0 0 1 1.99-2.875 9.088 9.088 0 0 1 2.987-1.902 9.853 9.853 0 0 1 3.672-.686c1.298 0 2.507.229 3.629.686a9.026 9.026 0 0 1 2.941 1.924 9.557 9.557 0 0 1 2.012 2.898c.501 1.107.782 2.308.841 3.605h-6.016c-.089-1.09-.429-1.96-1.018-2.61-.59-.648-1.446-.973-2.566-.973-.914 0-1.69.303-2.322.907-.636.606-.952 1.379-.952 2.324 0 .766.162 1.392.487 1.879.324.487.745.885 1.261 1.195a8.652 8.652 0 0 0 1.703.774c.62.207 1.223.413 1.813.62 1.21.383 2.324.847 3.342 1.394a10.878 10.878 0 0 1 2.653 1.967 8.08 8.08 0 0 1 1.748 2.72c.411 1.05.618 2.28.618 3.695 0 1.505-.257 2.883-.773 4.138-.515 1.253-1.231 2.322-2.145 3.207-.915.885-2.007 1.577-3.275 2.079-1.268.501-2.638.752-4.114.752"/></g><g clip-path="url(#k8pua)"><path fill="#fca01f" d="M273.705 29.566c-1.505 0-2.913.295-4.225.886a11.03 11.03 0 0 0-3.429 2.387 10.852 10.852 0 0 0-2.278 3.518 11.223 11.223 0 0 0-.818 4.269c0 1.475.28 2.876.84 4.203a11.454 11.454 0 0 0 2.278 3.496 10.74 10.74 0 0 0 3.407 2.387c1.312.591 2.72.885 4.225.885 1.504 0 2.912-.294 4.224-.885a10.755 10.755 0 0 0 3.408-2.387 11.477 11.477 0 0 0 2.278-3.496c.56-1.327.84-2.728.84-4.203 0-1.503-.272-2.926-.818-4.269a11.086 11.086 0 0 0-2.257-3.518 10.752 10.752 0 0 0-3.405-2.387c-1.314-.591-2.736-.886-4.27-.886m0 27.606c-2.271 0-4.418-.427-6.436-1.283a16.93 16.93 0 0 1-5.31-3.518 16.691 16.691 0 0 1-3.605-5.242c-.885-2.005-1.328-4.158-1.328-6.458 0-2.33.436-4.507 1.306-6.527a16.561 16.561 0 0 1 3.583-5.286 17.029 17.029 0 0 1 5.308-3.561c2.02-.87 4.182-1.306 6.482-1.306s4.468.436 6.503 1.306c2.035.87 3.805 2.057 5.31 3.56a17.13 17.13 0 0 1 3.583 5.287c.885 2.02 1.327 4.197 1.327 6.527 0 2.3-.442 4.453-1.327 6.458a16.71 16.71 0 0 1-3.605 5.242 16.972 16.972 0 0 1-5.31 3.518c-2.02.856-4.181 1.283-6.481 1.283"/></g><g clip-path="url(#k8pua)"><path fill="#fff" d="M149.26 23.992v24.155h-.132l-13.716-24.155h-7.034v33.18h6.149V33.061h.133l13.848 24.111h6.813v-33.18z"/></g><g clip-path="url(#k8pua)"><path fill="#fff" d="M313.94 23.992h-.001v24.155h-.132l-13.715-24.155h-7.035v33.18h6.15V33.061h.133l13.847 24.111H320v-33.18z"/></g><g clip-path="url(#k8pua)"><path fill="#fff" d="M58.482 26.738a1 1 0 0 0-1.305-.318l-18.8 10.235a.998.998 0 0 0 .01 1.761l18.864 9.986a1 1 0 0 0 1.29-.315l6.885-9.95a1 1 0 0 0 .006-1.13z"/></g><g clip-path="url(#k8pua)"><path fill="#fca01f" d="M69.417 14.638l-4.14-4.572a.665.665 0 0 0-.493-.22H36.468l-.027.001c-.65.027-.65.027-.654 4.206-.002 2.124 0 4.956.002 7.787.004 5.663.013 11.326.013 11.326a.666.666 0 0 0 .99.581l32.455-18.08a.666.666 0 0 0 .17-1.03"/></g><g clip-path="url(#k8pua)"><path fill="#fff" d="M32.182 9.778H20.154a.668.668 0 0 0-.546.284l-7.854 11.222a.667.667 0 0 0 .213.959l19.88 11.5a.667.667 0 0 0 1-.577V10.443a.666.666 0 0 0-.665-.665"/></g><g clip-path="url(#k8pua)"><path fill="#fff" d="M8.654 48.478a.999.999 0 0 0 1.33.354L29.085 38.41a.998.998 0 0 0 .022-1.742L9.667 25.402a.999.999 0 0 0-1.382.39L2.211 37.059a1 1 0 0 0 .029.998z"/></g><g clip-path="url(#k8pua)"><path fill="#fff" d="M56.84 52.281L36.196 41.096a.666.666 0 0 0-.983.588c.02 8.516.029 21.378-.026 22.244a.664.664 0 0 0 .658.774h13.057c.22 0 .427-.108.55-.29l7.62-11.17a.664.664 0 0 0-.232-.96"/></g><g clip-path="url(#k8pua)"><path fill="#fff" d="M31.587 41.036h-.008l-2.283.004a.667.667 0 0 0-.357.105L.308 59.43a.666.666 0 0 0-.2.925l2.62 4.027a.67.67 0 0 0 .557.303l28.288.012a.667.667 0 0 0 .666-.666l.008-22.262a.663.663 0 0 0-.66-.733"/></g></g></g></g></svg>