<svg xmlns="http://www.w3.org/2000/svg" width="224" height="50" viewBox="0 0 224 50"><defs><clipPath id="lqyba"><path d="M.534 50V0H224v50z"/></clipPath></defs><g><g clip-path="url(#clip-7841ac9e-0dab-43b5-b7ff-43020d268819)"><g><g/><g clip-path="url(#lqyba)"><path fill="#fda11e" d="M99.469 46.485c-.893-.213-1.44-.378-1.44-1.075 0-.62.648-.944 1.287-.944h.043c.867 0 1.308.584 1.345.998a.141.141 0 0 0 .14.13h.448a.141.141 0 0 0 .14-.154c-.072-.838-.811-1.687-2.087-1.687-1.167 0-2.046.713-2.046 1.657-.005 1.245 1.017 1.499 1.918 1.723.815.202 1.52.378 1.52 1.177 0 .575-.545.977-1.326.977-1.107 0-1.474-.722-1.516-1.148a.141.141 0 0 0-.14-.128h-.448a.14.14 0 0 0-.14.152c.064.885.794 1.837 2.244 1.837 1.35 0 2.055-.842 2.055-1.674 0-1.365-1.061-1.618-1.997-1.841"/></g><g clip-path="url(#lqyba)"><path fill="#fda11e" d="M118.968 49.27c-1.463 0-2.253-1.233-2.253-2.394 0-1.16.79-2.393 2.253-2.393 1.458 0 2.244 1.233 2.244 2.393 0 1.16-.786 2.394-2.244 2.394m0-5.517c-1.7 0-2.983 1.343-2.983 3.123 0 1.781 1.282 3.124 2.983 3.124 1.69 0 2.966-1.343 2.966-3.124 0-1.78-1.275-3.123-2.966-3.123"/></g><g clip-path="url(#lqyba)"><path fill="#fda11e" d="M140.536 49.204h-3.023v-5.227a.141.141 0 0 0-.142-.141h-.43a.141.141 0 0 0-.142.141v5.799c0 .078.063.141.142.141h3.595a.142.142 0 0 0 .141-.141v-.43a.142.142 0 0 0-.141-.142"/></g><g clip-path="url(#lqyba)"><path fill="#fda11e" d="M159.143 47.522h-2.427l1.214-2.673zm-.845-3.603a.14.14 0 0 0-.128-.083h-.48a.142.142 0 0 0-.13.083l-2.633 5.798a.141.141 0 0 0 .128.2h.489a.142.142 0 0 0 .129-.083l.716-1.59h3.082l.724 1.59c.023.05.073.083.129.083h.48a.141.141 0 0 0 .129-.2z"/></g><g clip-path="url(#lqyba)"><path fill="#fda11e" d="M178.968 45.833c0 .746-.633 1.267-1.54 1.267h-1.284v-2.534h1.284c.907 0 1.54.52 1.54 1.267m.834 3.887c-.429-.996-.881-1.643-1.44-2.049.816-.296 1.328-.99 1.328-1.838 0-1.176-.93-1.997-2.262-1.997h-1.856a.141.141 0 0 0-.141.141v5.799c0 .078.063.141.14.141h.432a.142.142 0 0 0 .141-.141V47.83h.638c1.01.102 1.718.72 2.28 2.003a.142.142 0 0 0 .13.084h.48a.142.142 0 0 0 .13-.197"/></g><g clip-path="url(#lqyba)"><path fill="#182b17" d="M59.672 39.785a7.53 7.53 0 0 1-2.78-.51 6.927 6.927 0 0 1-2.271-1.437 7.222 7.222 0 0 1-1.56-2.177 7.06 7.06 0 0 1-.65-2.735h4.326c.103.866.402 1.581.896 2.148.494.567 1.174.85 2.04.85.41 0 .803-.068 1.173-.202s.7-.324.989-.571a2.9 2.9 0 0 0 .695-.881c.174-.34.263-.715.263-1.128 0-.637-.13-1.158-.387-1.56a3.165 3.165 0 0 0-1.004-.988 7.432 7.432 0 0 0-1.374-.665c-.505-.185-1.005-.37-1.499-.556-.35-.123-.69-.257-1.02-.4a40.68 40.68 0 0 1-1.02-.465c-1.132-.576-1.96-1.318-2.486-2.224-.526-.907-.788-2.008-.788-3.306 0-.926.17-1.776.51-2.549a6.27 6.27 0 0 1 1.39-2.008 6.333 6.333 0 0 1 2.086-1.328 6.877 6.877 0 0 1 2.564-.479c.906 0 1.75.16 2.533.479.783.319 1.468.767 2.054 1.344a6.66 6.66 0 0 1 1.406 2.023c.35.773.546 1.612.588 2.518h-4.203c-.06-.762-.298-1.37-.71-1.823-.412-.453-1.009-.68-1.792-.68-.638 0-1.18.212-1.622.634-.443.423-.664.963-.664 1.623 0 .535.113.972.34 1.312.227.34.52.618.88.835.36.215.758.395 1.19.54.433.145.854.288 1.266.433.844.268 1.622.591 2.333.973.71.38 1.329.84 1.854 1.374a5.642 5.642 0 0 1 1.22 1.9c.289.732.432 1.591.432 2.58 0 1.05-.18 2.013-.54 2.89a6.551 6.551 0 0 1-1.498 2.239 6.89 6.89 0 0 1-2.287 1.452 7.742 7.742 0 0 1-2.873.525"/></g><g clip-path="url(#lqyba)"><path fill="#182b17" d="M80.713 16.645l7.348 23.14h-4.295l-4.925-15.509h-.03l-5.735 15.51h-5.159l8.902-23.14z"/></g><g clip-path="url(#lqyba)"><path fill="#182b17" d="M125.889 19.302a10.238 10.238 0 0 1 1.637 1.884c.474.7.87 1.437 1.19 2.21.319.772.561 1.575.726 2.41.165.833.247 1.663.247 2.486 0 .989-.124 1.972-.371 2.95a12.375 12.375 0 0 1-1.065 2.781 10.99 10.99 0 0 1-1.73 2.41 9.796 9.796 0 0 1-2.364 1.838c-1.112.618-2.353 1.025-3.723 1.221-1.37.195-2.693.293-3.97.293h-5.345v-4.016H116.343c1.029 0 1.987-.057 2.873-.17.885-.113 1.802-.428 2.75-.943a6.268 6.268 0 0 0 1.498-1.159 6.583 6.583 0 0 0 1.097-1.528c.287-.556.51-1.148.664-1.777a7.847 7.847 0 0 0-.417-5.02 7.32 7.32 0 0 0-1.854-2.595 6.405 6.405 0 0 0-1.7-1.098 9.07 9.07 0 0 0-1.853-.57c-.638-.124-1.293-.201-1.962-.232a43.777 43.777 0 0 0-2.024-.047h-4.294v-4.016h5.252c.803 0 1.632.036 2.487.108.855.073 1.7.212 2.534.417.834.207 1.632.48 2.394.819a8.39 8.39 0 0 1 2.101 1.344"/></g><g clip-path="url(#lqyba)"><path fill="#182b17" d="M131.796 16.583h12.481v4.047h-8.187v5.654h4.634V30.3h-4.634v5.468h8.187v4.016h-12.481z"/></g><g clip-path="url(#lqyba)"><path fill="#182b17" d="M162.058 39.785h-5.191l-8.341-12.08h4.912c.556 0 1.086-.071 1.591-.216a3.82 3.82 0 0 0 1.313-.649c.371-.288.664-.653.88-1.097.217-.442.325-.974.325-1.59 0-.598-.114-1.118-.34-1.561a3.166 3.166 0 0 0-.912-1.096 3.992 3.992 0 0 0-1.313-.65 5.484 5.484 0 0 0-1.544-.216h-7.044v-3.985h7.074c1.03 0 2.024.098 2.982.293.958.196 1.848.613 2.673 1.251a7.1 7.1 0 0 1 2.718 5.623c0 .99-.19 1.988-.571 2.997-.382 1.01-.933 1.854-1.654 2.534-.597.576-1.189.993-1.776 1.251-.586.257-1.272.478-2.054.664z"/></g><g clip-path="url(#lqyba)"><path fill="#182b17" d="M170.423 39.785c-.988 0-1.915-.17-2.78-.51a6.93 6.93 0 0 1-2.271-1.437 7.195 7.195 0 0 1-1.56-2.177 7.045 7.045 0 0 1-.648-2.735h4.324c.103.866.403 1.581.896 2.148.495.567 1.174.85 2.04.85.412 0 .803-.068 1.173-.202.372-.134.7-.324.989-.571.29-.248.52-.54.695-.881.175-.34.263-.715.263-1.128 0-.637-.129-1.158-.386-1.56a3.175 3.175 0 0 0-1.004-.988 7.387 7.387 0 0 0-1.375-.665 212.33 212.33 0 0 1-1.499-.556c-.35-.123-.69-.257-1.019-.4-.33-.145-.67-.3-1.02-.465-1.132-.576-1.962-1.318-2.486-2.224-.525-.907-.788-2.008-.788-3.306 0-.926.17-1.776.509-2.549a6.278 6.278 0 0 1 1.39-2.008 6.347 6.347 0 0 1 2.086-1.328 6.88 6.88 0 0 1 2.564-.479c.906 0 1.751.16 2.534.479.782.319 1.467.767 2.054 1.344a6.673 6.673 0 0 1 1.405 2.023c.35.773.546 1.612.588 2.518h-4.202c-.062-.762-.3-1.37-.71-1.823-.412-.453-1.01-.68-1.792-.68-.638 0-1.18.212-1.622.634-.444.423-.664.963-.664 1.623 0 .535.112.972.34 1.312.226.34.52.618.88.835.36.215.757.395 1.189.54.433.145.854.288 1.266.433.846.268 1.624.591 2.334.973.71.38 1.329.84 1.853 1.374a5.642 5.642 0 0 1 1.22 1.9c.288.732.432 1.591.432 2.58 0 1.05-.18 2.013-.54 2.89a6.529 6.529 0 0 1-1.498 2.239 6.881 6.881 0 0 1-2.287 1.452 7.739 7.739 0 0 1-2.872.525"/></g><g clip-path="url(#lqyba)"><path fill="#fca01f" d="M191.67 20.507c-1.05 0-2.033.206-2.95.618a7.579 7.579 0 0 0-3.986 4.124 7.837 7.837 0 0 0-.57 2.981c0 1.03.195 2.009.586 2.935a7.999 7.999 0 0 0 1.591 2.442 7.5 7.5 0 0 0 2.38 1.667c.916.413 1.9.618 2.95.618 1.05 0 2.034-.205 2.95-.618a7.51 7.51 0 0 0 2.38-1.667c.668-.7 1.198-1.514 1.59-2.442a7.471 7.471 0 0 0 .587-2.935c0-1.05-.19-2.043-.572-2.98a7.742 7.742 0 0 0-1.575-2.457 7.509 7.509 0 0 0-2.378-1.668 7.185 7.185 0 0 0-2.982-.618m0 19.278c-1.586 0-3.085-.298-4.495-.896a11.823 11.823 0 0 1-3.708-2.456c-1.06-1.04-1.9-2.26-2.518-3.661-.617-1.4-.927-2.904-.927-4.51 0-1.627.305-3.147.912-4.558.607-1.41 1.44-2.641 2.503-3.692a11.892 11.892 0 0 1 3.706-2.486 11.326 11.326 0 0 1 4.527-.912c1.606 0 3.12.304 4.541.912a11.677 11.677 0 0 1 3.708 2.486 11.962 11.962 0 0 1 2.502 3.692c.618 1.41.927 2.931.927 4.558 0 1.606-.309 3.11-.927 4.51a11.67 11.67 0 0 1-2.517 3.66 11.852 11.852 0 0 1-3.708 2.457c-1.411.598-2.92.896-4.526.896"/></g><g clip-path="url(#lqyba)"><path fill="#182b17" d="M104.767 16.614v16.868h-.092l-9.578-16.868h-4.913v23.171h4.294V22.947h.093l9.67 16.838H109V16.614z"/></g><g clip-path="url(#lqyba)"><path fill="#182b17" d="M219.768 16.614v16.868h-.093l-9.578-16.868h-4.912v23.171h4.294V22.947h.093l9.67 16.838H224V16.614z"/></g><g clip-path="url(#lqyba)"><path fill="#182b17" d="M41.374 18.532a.698.698 0 0 0-.911-.222l-13.13 7.148a.697.697 0 0 0 .007 1.23l13.174 6.973a.698.698 0 0 0 .9-.22l4.81-6.95a.698.698 0 0 0 .003-.787z"/></g><g clip-path="url(#lqyba)"><path fill="#fca01f" d="M49.01 10.082L46.12 6.89a.464.464 0 0 0-.345-.153H25.98c-.453.02-.453.02-.456 2.938 0 1.483 0 3.46.002 5.438.003 3.955.009 7.91.009 7.91a.465.465 0 0 0 .692.405L48.892 10.8a.465.465 0 0 0 .118-.719"/></g><g clip-path="url(#lqyba)"><path fill="#182b17" d="M23.008 6.688h-8.4a.466.466 0 0 0-.381.198l-5.485 7.837a.465.465 0 0 0 .149.67l13.883 8.03a.466.466 0 0 0 .699-.402V7.153a.465.465 0 0 0-.465-.465"/></g><g clip-path="url(#lqyba)"><path fill="#182b17" d="M6.578 33.714a.698.698 0 0 0 .928.247l13.34-7.278a.697.697 0 0 0 .015-1.217L7.284 17.6a.698.698 0 0 0-.964.273l-4.242 7.867a.698.698 0 0 0 .02.697z"/></g><g clip-path="url(#lqyba)"><path fill="#182b17" d="M40.227 36.37L25.81 28.559a.465.465 0 0 0-.687.41c.014 5.947.02 14.93-.018 15.534a.464.464 0 0 0 .46.54h9.118a.464.464 0 0 0 .384-.203l5.322-7.8a.464.464 0 0 0-.163-.67"/></g><g clip-path="url(#lqyba)"><path fill="#182b17" d="M22.592 28.517h-.005l-1.594.002a.466.466 0 0 0-.25.074L.75 41.362a.465.465 0 0 0-.14.646l1.83 2.812a.468.468 0 0 0 .39.212l19.753.008a.466.466 0 0 0 .466-.465l.005-15.546a.463.463 0 0 0-.46-.512"/></g></g></g></g></svg>