<svg xmlns="http://www.w3.org/2000/svg" width="80" height="48.699" viewBox="0 0 80 48.699">
  <g id="svgg" transform="translate(-0.06 -78.104)">
    <path id="path0" d="M50.782,81.383l-4.11,3.275-7.536,0c-8.536.005-8.161-.051-8.161,1.23,0,1.245-.376,1.19,8.531,1.239,5.8.032,7.964-.005,8.217-.14.188-.1,2.083-1.579,4.211-3.284l3.868-3.1H69.867v2.655H56.444l-4.105,3.279-4.1,3.279H2.7V87.167H27.052l.431-.371a1.257,1.257,0,0,0,.053-1.85c-.583-.472-25.851-.427-26.454.047C.313,85.6.2,86.025.2,88.451.2,91.3.49,91.93,1.93,92.229c.362.075.62.637,2.89,6.292,1.371,3.415,2.512,6.255,2.537,6.311a3.682,3.682,0,0,1-1.25.173,3.9,3.9,0,0,0-3.034,1.244c-1.07,1.138-1.064,1.1-1.15,6.613l-.078,5-.9,2.181c-1.031,2.5-1.119,3.167-.487,3.665,1.04.818,1.661.286,2.63-2.252.6-1.575.8-1.952,1-1.879.138.05.852.344,1.586.653l1.336.561.535,1.191c2.71,6.027,11.705,6.516,15.067.819l.468-.794,1.735,0,1.735,0,.573.928c3.231,5.234,11.812,5.1,14.638-.224l.374-.7h4.6l.435.892c.814,1.668,2.918,1.245,2.48-.5l-.1-.394h6.366l.652,1.008c3.363,5.2,11.734,5.022,14.562-.309l.371-.7h3.562c5.283,0,4.952.379,4.952-5.671,0-4.991,0-4.981-1.171-4.981-1.154,0-1.172.066-1.172,4.351v3.8h-5.31v-.986a8.609,8.609,0,0,0-12.536-7.88c-.536.279-1.027.532-1.092.561s-.117-4.381-.117-9.8V91.541l4.959,0,4.959.005.651.893.651.893-3.438.078-3.438.078-.383.446-.383.446.046,4.527.046,4.527.438.377.438.377H77.676v1.787c0,2.194.719,2.925,2,2.03.443-.31.539-5.04.119-5.817-.5-.919-9.726-12.77-10.086-12.952-.285-.144-1.775-.2-5.735-.2l-5.35,0V85.775l6.138-.046c7.936-.059,7.529.15,7.529-3.866,0-4.037.707-3.755-9.432-3.755H54.892l-4.11,3.275m5.34,14.531v9.059h-6.4v-2.712c0-3.184-.125-3.535-1.261-3.535-1.164,0-1.238.207-1.238,3.436v2.811H38.472V92.322h8.747v1.31c0,1.6.248,2.032,1.171,2.032,1.017,0,1.328-.544,1.328-2.321v-1.46l3.143-2.514c1.729-1.383,3.17-2.514,3.2-2.514s.058,4.077.058,9.059m-42.8,2.733v6.326l-1.6,0-1.6,0L7.6,98.645,5.077,92.322h8.247v6.326m11.246,0v6.326H15.824V92.322h8.747v6.326m11.4,0v6.326h-8.9V92.322h8.9v6.326m36.743-1.6c.471.623,1.464,1.923,2.207,2.89l1.351,1.757H64.712V95.914h7.147l.856,1.132M56.122,110.773c0,3.176-.016,3.342-.41,4.412a8.221,8.221,0,0,0-.489,2.713l-.079,1.6H48.525l-1.774-4.448c-1.308-3.28-1.892-4.562-2.225-4.881l-.452-.433L25.025,109.7c-21.058-.045-19.641-.111-20.307.946l-.315.5.049-1.379c.047-1.335.065-1.394.559-1.835l.51-.456h50.6v3.3M8.506,112.978A8.182,8.182,0,0,0,6.779,117.1l-.093.808-.813-.344a5.987,5.987,0,0,1-.917-.449,9.559,9.559,0,0,1,.691-2.1c.437-1.1.866-2.191.953-2.428.153-.417.192-.429,1.338-.429h1.18l-.612.82m8.6-.5a6.065,6.065,0,1,1-7.834,6.667,6.1,6.1,0,0,1,7.834-6.667m10.521.4a8.47,8.47,0,0,0-1.8,5.329l0,1.289H23.868l0-1.289a8.614,8.614,0,0,0-1.9-5.388l-.539-.664h6.752l-.553.723m8.527-.414a6.029,6.029,0,0,1,2.683,9.845,5.954,5.954,0,0,1-8.728.241c-4.448-4.451.051-11.957,6.045-10.087m8.2,3.4L45.78,119.5H42.9l.062-.9a9.039,9.039,0,0,0-1.925-5.786l-.574-.671,1.224.046,1.224.046,1.432,3.631m21.693-3.236a6.157,6.157,0,0,1,3.247,8.128,6.038,6.038,0,1,1-3.247-8.128m-52.069,2.083a3.821,3.821,0,0,0-1.326,6.254,3.9,3.9,0,0,0,5.661-.4,3.812,3.812,0,0,0-4.335-5.852m19.056-.01a3.849,3.849,0,0,0-1.16,6.376,3.785,3.785,0,0,0,6.243-2.4,3.835,3.835,0,0,0-5.084-3.978m29.1.159a3.637,3.637,0,0,0-2.068,3.85c.27,3.733,5.657,4.544,7.149,1.076a3.781,3.781,0,0,0-5.082-4.926m-45.976,2.592c.5.5.556.784.275,1.311a1.2,1.2,0,1,1-.275-1.311m19.012-.14a1.188,1.188,0,0,1,.284,1.522,1.2,1.2,0,0,1-2.283-.545,1.218,1.218,0,0,1,2-.977m29.481.067a1.17,1.17,0,1,1-.866-.383,1.259,1.259,0,0,1,.866.383" transform="translate(0)" fill="#153b19" fill-rule="evenodd"/>
  </g>
</svg>
