<svg xmlns="http://www.w3.org/2000/svg" width="58.357" height="80" viewBox="0 0 58.357 80">
  <g id="svgg" transform="translate(-54.315 0.555)">
    <path id="path0" d="M81.453-.234c-1.173.388-1.874.859-4.446,2.992-3.415,2.831-3.034,2.672-7.5,3.126-7.186.731-8.231,1.777-8.955,8.963-.448,4.449-.29,4.07-3.127,7.483s-3.119,3.988-3.115,6.4c0,2.384.191,2.762,3.116,6.317,2.823,3.432,2.681,3.088,3.132,7.559.664,6.576,1.958,8.137,7.219,8.717l2.345.258L65.849,61.795c-4.5,10.742-4.548,10.894-3.885,11.682s1.006.755,5.212-.44c2.1-.6,3.828-1.071,3.841-1.054s.846,1.539,1.851,3.384c2.029,3.724,2.293,4.056,3.222,4.056,1.307,0,.733,1.109,6.136-11.855,3.258-7.815,4.422-10.45,4.72-10.685.218-.172,1.563-1.275,2.989-2.451,2.384-1.968,3.892-2.9,4.038-2.5.024.066,1.824,4.367,4,9.558s3.934,9.461,3.908,9.49-1.328-.312-2.894-.758c-4.481-1.276-4.555-1.247-6.679,2.645-.8,1.467-1.5,2.7-1.557,2.73s-.932-1.927-1.948-4.358-1.943-4.559-2.06-4.727a1.3,1.3,0,0,0-2.249.835c0,.439,4.664,11.344,5.009,11.711a1.838,1.838,0,0,0,2.106.1A35.46,35.46,0,0,0,93.846,75.4c1.735-3.163,1.938-3.467,2.245-3.369,1.2.383,7.354,2.088,7.537,2.088a1.733,1.733,0,0,0,1.483-2.075c-.077-.275-2.018-4.978-4.312-10.452s-4.146-9.976-4.115-10,.918-.135,1.971-.235c5.5-.525,6.867-2.124,7.521-8.821.42-4.306.363-4.164,2.985-7.33,4.65-5.614,4.669-7.464.136-12.871-2.748-3.277-2.716-3.2-3.117-7.41-.688-7.215-1.775-8.311-8.961-9.036-4.387-.442-4.066-.308-7.5-3.132C85.946-.352,83.97-1.066,81.453-.234m3.432,2.576A31.723,31.723,0,0,1,88.161,4.8c3.924,3.217,3.564,3.067,8.544,3.574,6.093.621,6.4.929,6.977,6.937.474,4.957.355,4.67,3.589,8.608,3.788,4.613,3.785,4.962-.084,9.643-3.048,3.687-3.055,3.7-3.507,8.423-.594,6.2-.81,6.417-7.018,7.02-4.739.46-4.74.46-8.423,3.505-4.681,3.869-5.03,3.872-9.643.084-3.939-3.234-3.651-3.115-8.608-3.589-6.008-.575-6.32-.888-6.933-6.966-.5-4.964-.37-4.649-3.512-8.475-3.521-4.287-3.664-5.21-1.269-8.169.652-.805,1.756-2.168,2.455-3.028,1.751-2.157,1.875-2.535,2.329-7.105.337-3.381.408-3.785.8-4.5.9-1.662,1.6-1.932,6.1-2.379,4.556-.453,4.936-.578,7.092-2.328,5.1-4.136,4.811-3.958,6.358-3.98a3.763,3.763,0,0,1,1.482.271m-4.076,7.98a1.042,1.042,0,0,0-.87,1.2c0,1.075.462,1.288,2.572,1.184,14.657-.722,22.5,16.908,12.14,27.273a15.958,15.958,0,0,1-26.385-5.932A16.12,16.12,0,0,1,75.9,14.526c1.314-.665,1.579-.949,1.579-1.687,0-3.558-7.6,1.61-10.5,7.137-7.893,15.062,6.762,31.867,22.792,26.137C105.3,40.56,106.031,18.379,90.9,11.7c-2.833-1.25-8.153-1.977-10.086-1.377m9.3,9.786c-1.219.173-1.469.376-6.12,5l-4.638,4.613-1.46-1.432c-2.82-2.765-5.592-2.817-7.009-.132-1.064,2.016-.562,3.114,3.14,6.862,3.743,3.789,4.8,4.3,6.884,3.364.832-.375,12.247-11.651,12.89-12.733a3.715,3.715,0,0,0-3.687-5.544m1.333,2.916c.739.739.763.709-5.659,7.139-5.176,5.182-6.107,6.049-6.494,6.049-.492,0-5.645-4.9-6.13-5.827a1.14,1.14,0,0,1,1.071-1.661c.258,0,.929.567,2.3,1.946,3.026,3.033,2.369,3.264,8.66-3.034,5.419-5.425,5.429-5.432,6.247-4.613M74.122,52.365c.343.2,1.747,1.292,3.12,2.426,2.71,2.238,3.821,2.879,5.269,3.043.741.084.9.152.848.355-.113.408-7.168,17.243-7.28,17.372a11.788,11.788,0,0,1-1.4-2.262c-2.409-4.411-2.346-4.383-6.953-3.077a28,28,0,0,1-2.832.721c-.035-.035,1.666-4.2,3.781-9.247s3.908-9.346,3.984-9.545c.162-.419.458-.376,1.465.213" transform="translate(0 0)" fill="#153b19" fill-rule="evenodd"/>
  </g>
</svg>
