<svg xmlns="http://www.w3.org/2000/svg" width="80.001" height="80" viewBox="0 0 80.001 80">
  <g id="svgg" transform="translate(-0.091 -0.196)">
    <path id="path0" d="M36.965.292c-1.019.216-1.13.362-1.8,2.38l-.639,1.917-1.163.493L32.2,5.575l-1.678-.833C28.068,3.524,27.694,3.632,25,6.325s-2.8,3.068-1.584,5.519l.833,1.678-.493,1.163-.493,1.163-1.921.641c-2.555.852-2.434.61-2.434,4.849,0,4.486-.207,4.131,3.038,5.21l1.318.439.492,1.162.492,1.162-.833,1.678C22.2,33.44,22.307,33.814,25,36.508s3.068,2.8,5.519,1.584l1.678-.833,1.162.492,1.162.492.439,1.318c1.078,3.24.737,3.038,5.132,3.038s4.054.2,5.132-3.038l.439-1.318,1.162-.492,1.162-.492,1.678.833c2.451,1.217,2.825,1.11,5.519-1.584s2.8-3.068,1.584-5.519l-.833-1.678.492-1.162.492-1.162,1.318-.439c3.24-1.078,3.038-.737,3.038-5.132s.2-4.054-3.038-5.132l-1.318-.439-.492-1.162-.492-1.162.833-1.678c1.217-2.451,1.11-2.825-1.584-5.519s-3.068-2.8-5.519-1.584l-1.678.833-1.162-.492L45.662,4.59l-.439-1.318c-.778-2.337-.9-2.59-1.345-2.809A35.715,35.715,0,0,0,36.965.292m4.44,2.365h.976l.6,1.889c.639,2.011.73,2.132,1.878,2.494.344.108,1.144.433,1.778.721,1.489.676,1.5.675,3.4-.329L51.65,6.58l.884.755a17.745,17.745,0,0,1,1.639,1.639l.755.884-.853,1.611c-1,1.9-1.005,1.913-.329,3.4.288.634.644,1.517.79,1.962.338,1.024.293.993,2.477,1.707l1.837.6v4.554l-1.837.6c-2.184.714-2.139.683-2.477,1.707-.147.445-.5,1.327-.79,1.962-.676,1.489-.675,1.5.329,3.4l.853,1.611-.755.884a17.67,17.67,0,0,1-1.633,1.634l-.878.749-1.6-.844c-1.881-.99-2-1-3.369-.36-.577.27-1.428.621-1.891.781-1.168.4-1.157.387-1.822,2.483l-.595,1.874H37.8l-.6-1.889c-.639-2.011-.73-2.132-1.878-2.494-.344-.108-1.144-.433-1.778-.721-1.485-.674-1.525-.671-3.421.327l-1.6.844-.878-.749a17.593,17.593,0,0,1-1.627-1.627l-.749-.878.844-1.6c.99-1.881,1-2,.36-3.369-.27-.577-.621-1.428-.781-1.891-.4-1.168-.387-1.157-2.483-1.822l-1.874-.595v-4.58l1.874-.595c2.1-.666,2.081-.654,2.483-1.822.16-.463.511-1.315.781-1.891.642-1.373.63-1.488-.36-3.369l-.844-1.6.749-.878A17.729,17.729,0,0,1,27.654,7.33l.89-.759,1.606.857c1.889,1.009,1.906,1.01,3.4.334.634-.288,1.434-.612,1.778-.721,1.148-.362,1.24-.484,1.876-2.488l.6-1.882,1.108-.052a10.348,10.348,0,0,1,1.316-.006,10.479,10.479,0,0,0,1.184.046M37.669,8.673c-1.933.358-4.725,1.607-5.082,2.272-.456.853-.256,1.213,1.844,3.314,2.2,2.2,2.4,2.3,3.7,1.758a5.665,5.665,0,0,1,3.368-.145,11.008,11.008,0,0,0,1.54.34l.68.08,2.017-2.017c2.908-2.908,2.776-3.537-1.048-4.989a13.61,13.61,0,0,0-7.018-.614M4.032,8.979a6.511,6.511,0,0,0-3.54,3.18L.151,12.9.109,31.734C.068,50.127.074,50.595.377,51.587c.228.749,1.752,3.4,5.787,10.054l5.477,9.038-.7,3.851c-.387,2.118-.7,4.142-.7,4.5,0,1.258-1.142,1.165,14.344,1.165H38.349l.331-.421c.33-.419.331-.454.282-9.5-.055-10.2-.019-9.877-1.328-12.28-.865-1.588-18.285-19.024-19.712-19.73a6.416,6.416,0,0,0-5.567.125,1.268,1.268,0,0,1-.437.221c-.067,0-.121-5.067-.121-11.259V16.093l.43.225a4.239,4.239,0,0,1,1.545,1.659c.272.51.295,1.1.339,8.7.054,9.15-.011,8.684,1.2,8.684,1.255,0,1.188.536,1.138-9.166l-.044-8.608-.436-.887a6.647,6.647,0,0,0-3.018-2.843c-1.135-.406-1.145-.414-1.55-1.413A6.022,6.022,0,0,0,4.032,8.979m68.244.027a6.172,6.172,0,0,0-3.5,3.436c-.4,1-.414,1.008-1.55,1.413A6.648,6.648,0,0,0,64.21,16.7l-.436.888-.044,8.608c-.05,9.7-.116,9.166,1.138,9.166,1.213,0,1.149.465,1.2-8.684.045-7.6.068-8.189.339-8.7a4.239,4.239,0,0,1,1.545-1.659l.43-.225V27.353c0,6.193-.027,11.259-.059,11.259s-.472-.193-.977-.43a6.5,6.5,0,0,0-5.064.071c-1.437.71-19.032,18.32-19.805,19.822-1.243,2.415-1.206,2.054-1.261,12.254l-.049,9.127.347.369.347.369H55.649c13.154,0,13.8-.013,14.042-.286.387-.428.328-1.149-.444-5.375l-.7-3.847,5.477-9.041c4.04-6.669,5.558-9.308,5.787-10.058.3-.991.308-1.473.267-19.853L80.032,12.9l-.343-.743a6.26,6.26,0,0,0-7.414-3.148M42.153,11.17a10.683,10.683,0,0,1,1.688.505l.643.284-.84.827c-.806.794-.859.82-1.3.636a8.894,8.894,0,0,0-2.255-.191,8.894,8.894,0,0,0-2.255.191c-.439.183-.491.158-1.3-.636l-.84-.827.65-.287a10.345,10.345,0,0,1,5.8-.5m-34.634.444a4.223,4.223,0,0,1,1.606,1.83c.222.486.259,2.3.328,16.18L9.53,45.256l.452.938c.785,1.629,17.446,18.212,18.3,18.212a1.2,1.2,0,0,0,1.338-1.233c0-.522-.481-1.035-8.591-9.157-5.931-5.94-8.666-8.784-8.832-9.185a3.461,3.461,0,0,1,4.725-4.279c1.024.542,18.117,17.949,18.625,18.967.918,1.842.947,2.171.95,10.632l0,7.7H12.885l.08-.352c.308-1.36,1.177-6.538,1.177-7.014,0-.494-.872-2.026-5.548-9.745C5.543,55.7,2.922,51.211,2.771,50.762c-.439-1.3-.424-36.648.016-37.474a3.436,3.436,0,0,1,4.731-1.673m68.293-.008A4.233,4.233,0,0,1,77.4,13.288c.442.83.455,36.173.013,37.482-.153.454-2.773,4.943-5.823,9.977-4.671,7.709-5.545,9.244-5.545,9.737s.924,5.9,1.2,7.014l.087.352H43.687l0-7.7c0-8.461.032-8.79.95-10.632.507-1.018,17.6-18.425,18.625-18.967a3.517,3.517,0,0,1,4.964,3.062c0,1.315.09,1.212-9,10.325-8.033,8.052-8.662,8.722-8.662,9.213a1.2,1.2,0,0,0,1.316,1.253c.871,0,17.518-16.549,18.319-18.212l.452-.938.078-15.632c.073-14.63.1-15.673.36-16.258a3.405,3.405,0,0,1,4.721-1.76M29.589,13.92a8.451,8.451,0,0,0-1.628,2.9,13.255,13.255,0,0,0,0,9.191c1.449,3.818,2.083,3.954,4.972,1.065,2.2-2.2,2.3-2.4,1.758-3.7a5.665,5.665,0,0,1-.145-3.368,11.008,11.008,0,0,0,.34-1.54l.08-.68L32.95,15.774c-2.118-2.118-2.524-2.342-3.361-1.854m17.644,1.854L45.216,17.79l.08.68a11.008,11.008,0,0,0,.34,1.54,5.665,5.665,0,0,1-.145,3.368c-.541,1.294-.444,1.5,1.758,3.7,2.693,2.693,3.166,2.72,4.384.245A13.106,13.106,0,0,0,51.4,15.048c-1.081-1.957-1.574-1.871-4.17.725M32.1,19.159a13.461,13.461,0,0,0,0,4.513c.183.439.158.491-.636,1.3l-.827.84-.284-.643a10.277,10.277,0,0,1-.075-7.316L30.592,17l.849.849c.818.818.842.866.657,1.309m18.24.2a10.309,10.309,0,0,1-.505,5.811l-.284.643-.827-.84c-.794-.806-.82-.859-.636-1.3a8.894,8.894,0,0,0,.191-2.255,8.894,8.894,0,0,0-.191-2.255c-.183-.439-.158-.491.636-1.3l.827-.84.284.643a10.683,10.683,0,0,1,.505,1.688m-11.5-1.329a3.605,3.605,0,0,0-1.255,5.9,3.569,3.569,0,0,0,6.1-2.506,3.667,3.667,0,0,0-4.846-3.39m1.961,2.68a1.064,1.064,0,0,1-.711,1.8A1.411,1.411,0,0,1,39,21.417a1.012,1.012,0,0,1,1.8-.711m-6.371,7.869c-2.693,2.693-2.72,3.166-.245,4.384a13.1,13.1,0,0,0,11.811,0c2.478-1.22,2.45-1.689-.262-4.4l-2.017-2.017-.68.08a11.007,11.007,0,0,0-1.54.34,5.665,5.665,0,0,1-3.368-.145c-1.294-.541-1.5-.444-3.7,1.758m4.253,1a9.936,9.936,0,0,0,3.672-.185c.42-.159.5-.119,1.287.657l.84.827-.643.284a10.279,10.279,0,0,1-7.314.076l-.846-.317.835-.845c.541-.548.918-.813,1.072-.753a10.046,10.046,0,0,0,1.1.255" transform="translate(0 0)" fill="#153b19" fill-rule="evenodd"/>
  </g>
</svg>
