<svg xmlns="http://www.w3.org/2000/svg" width="77.759" height="80" viewBox="0 0 77.759 80">
  <g id="svgg" transform="translate(-5.541 0.021)">
    <path id="path0" d="M43.489.325C43,.85,43,5.509,43.495,6.132a1.2,1.2,0,0,0,1.852,0c.523-.665.492-5.311-.038-5.809a1.371,1.371,0,0,0-1.819,0M29.905,6.018c-.607.772-.469,1.053,1.5,3.049,2.006,2.031,2.572,2.293,3.328,1.538.727-.727.481-1.276-1.448-3.222-2-2.021-2.659-2.285-3.384-1.365M55.552,7.383c-1.929,1.947-2.175,2.495-1.447,3.222.755.755,1.321.494,3.328-1.538,1.972-2,2.111-2.277,1.5-3.049-.725-.921-1.382-.656-3.384,1.365M42.468,9.357c-6.93,1.266-11.353,9.517-8.283,15.453l.247.478H28.917c-5.981,0-6.041.008-6.369.869-.477,1.254.244,1.63,3.118,1.63,1.777,0,2.354.048,2.357.2,0,.107-.185,1.583-.414,3.28l-.418,3.085H19.639c-6.063,0-7.552-.04-7.552-.2,0-.111.179-1.218.4-2.46.708-4.027.579-3.9,3.927-3.9,2.828,0,3.308-.21,3.12-1.368-.167-1.027-.253-1.054-3.427-1.054-3.537,0-4.791.567-5.4,2.44-.16.493-4.4,23.852-4.933,27.2-.568,3.545-.127,4.982,1.846,6.023l.8.422,15.347.043,15.347.043v4.054l-1.523,0c-3.1.007-4.564,1.418-4.567,4.409v1.367l-1.523.007c-3.489.016-4.8,1.449-4.8,5.24,0,2.25.138,2.737.885,3.123.57.295,32.982.334,33.626.041.726-.331.93-.856,1-2.565.157-4.038-1.168-5.714-4.606-5.823l-1.77-.056v-1.35c0-2.973-1.472-4.385-4.567-4.392l-1.523,0V61.526H54.24c4.325,0,4.526-.013,4.92-.324a1.247,1.247,0,0,0,.05-1.836l-.361-.34H34.135c-26.657,0-25.517.035-25.961-.8a6.84,6.84,0,0,1,.1-2.852c.152-.4,72.143-.4,72.3,0a6.84,6.84,0,0,1,.1,2.852c-.415.776-.651.8-9.3.8H63.307l-.383.383a1.176,1.176,0,0,0,.006,1.739l.39.39,8.553-.045,8.553-.045.8-.422C83.2,59.985,83.639,58.546,83.07,55c-.546-3.4-4.773-26.707-4.932-27.2a4.591,4.591,0,0,0-1.92-2.1c-.632-.338-.687-.34-11.22-.383l-10.584-.043.245-.473a12.264,12.264,0,0,0,.545-7.231A11.3,11.3,0,0,0,42.468,9.357m4.052,2.652A8.673,8.673,0,0,1,52.04,24.39l-.477.9H37.279l-.477-.9A8.648,8.648,0,0,1,46.52,12.008m-21.8,7.205a1.21,1.21,0,0,0-.441,1.914l.324.412h5.422l.324-.412a1.193,1.193,0,0,0-.5-1.924,21.581,21.581,0,0,0-5.126.01m34.239,0a1.176,1.176,0,0,0-.471,1.917l.324.412h5.422l.324-.412a1.193,1.193,0,0,0-.5-1.924,21.248,21.248,0,0,0-5.1.006M43.171,31.067v3.28H36.454c-3.694,0-6.716-.047-6.716-.1,0-.227.81-6.078.867-6.261.047-.152,1.448-.2,6.313-.2h6.253v3.28m15.491-.156c.235,1.675.431,3.134.434,3.241.006.153-1.437.2-6.709.2H45.67V27.784l6.282.041,6.282.041.427,3.046M75.238,28.1c.5.39,1.516,4.459,1.516,6.044,0,.162-1.489.2-7.552.2H61.65l-.418-3.085c-.23-1.7-.416-3.173-.414-3.28.007-.387,13.923-.271,14.42.12m-48.465,8.94c0,.107-.19,1.618-.426,3.358l-.428,3.163H10.344l.088-.43c.048-.236.3-1.659.565-3.163s.507-2.821.544-2.929c.1-.286,15.227-.286,15.231,0m16.4,3.163v3.358H35.829c-5.5,0-7.341-.046-7.341-.183,0-.281.8-6.117.867-6.339.047-.152,1.573-.2,6.938-.2h6.878V40.2m16.741-.234c.235,1.675.431,3.169.434,3.319.007.257-.444.273-7.334.273H45.67v-6.72l6.907.041,6.907.041.427,3.046M77.8,39.736c.276,1.546.543,3.04.594,3.319l.093.508H62.922L62.494,40.4c-.236-1.74-.427-3.252-.426-3.36,0-.156,1.578-.188,7.616-.156l7.613.041.5,2.812m-52.33,6.99c-.05.365-.25,1.841-.443,3.28l-.352,2.616H16.74c-7.453,0-7.933-.017-7.932-.273,0-.15.247-1.6.547-3.231s.545-2.98.545-3.007,3.524-.05,7.831-.05h7.831l-.092.664m17.7,2.616v3.28H27.2l.092-.664c.05-.365.25-1.841.443-3.28l.352-2.616H43.171v3.28m18.013-.117c.234,1.74.423,3.216.422,3.28s-3.587.117-7.969.117H45.67v-6.56H60.759l.425,3.163m17.757-3.113c0,.027.245,1.38.545,3.007s.546,3.08.547,3.231c0,.257-.479.273-7.932.273H64.167l-.352-2.616c-.194-1.439-.393-2.915-.443-3.28l-.092-.664H71.11c4.307,0,7.831.022,7.831.05M47.232,63.557v2.031H41.609V61.526h5.623v2.031m5.635,4.986c.424.424.456.54.456,1.64v1.183H35.517V70.184c0-1.1.032-1.216.456-1.64l.457-.457H52.411l.457.457m5.836,5.5c.674.307.922.875,1,2.28l.068,1.289H29.074l.068-1.3c.072-1.37.286-1.877.946-2.243.49-.272,28.02-.3,28.616-.027" transform="translate(0 0)" fill="#153b19" fill-rule="evenodd"/>
  </g>
</svg>
