<svg xmlns="http://www.w3.org/2000/svg" width="79.9" height="80" viewBox="0 0 79.9 80">
  <g id="svgg" transform="translate(0 0.452)">
    <path id="path0" d="M53.023.067c-.286.363-.325.562-.251,1.287.048.472.135,1.52.193,2.33.121,1.683.426,2.193,1.309,2.193,1.258,0,1.407-.717.987-4.741C55.1-.369,53.842-.971,53.023.067M64.83,2.1a17.946,17.946,0,0,0-1.977,4.466,1.159,1.159,0,0,0,1.86.92,15.831,15.831,0,0,0,2.2-4.547A1.289,1.289,0,0,0,64.83,2.1M41.868,3.92c-.691.691-.215,1.8,2,4.647a1.246,1.246,0,0,0,2.3-.625A16.723,16.723,0,0,0,43.63,3.888a1.235,1.235,0,0,0-1.762.032m12.111,4a15.965,15.965,0,0,0-12.753,9.714L40.717,18.9l-13.023.078c-11.3.068-13.054.109-13.255.312-.128.129-1.533,1.883-3.123,3.9C8.1,27.271,8,27.481,8.9,28.243c.958.806,1.191.635,3.978-2.915A29.433,29.433,0,0,1,15.3,22.443c.068.024,2.969,3.679,6.447,8.121l6.323,8.078V76.995H22l-.043-7.872-.043-7.872-.355-.355-.355-.355-6.273-.047c-6.775-.051-7.131-.029-7.6.474-.3.325-.311.555-.311,8.181v7.847H2.339l0-19.144,0-19.144L4.62,35.821c2.792-3.54,2.823-3.609,2.036-4.484-.862-.958-1.2-.7-4.221,3.144L0,37.585v20.64C0,78.658,0,78.869.312,79.178c.493.493,78.735.493,79.228,0s.48-6.538,0-7.018a1.441,1.441,0,0,0-1.681-.069c-.332.232-.347.342-.347,2.573v2.33h-14.8l-.177-.659a8.107,8.107,0,0,0-3.32-4.511c-.442-.277-.83-.523-.863-.546-.16-.115,1.059-1.716,1.833-2.407a8.843,8.843,0,0,1,5.338-2.17c1.419,0,1.454-.087,1.545-3.846.122-5.007,1.628-7.1,5.12-7.1,3.932-.009,5.318,2.257,5.325,8.7,0,3.537.05,3.681,1.173,3.681,1.2,0,1.2,0,1.141-4.939l-.05-4.372-.593-1.213a7.957,7.957,0,0,0-5.337-4.255l-.7-.1V37.735l-2.028-2.588L69.089,32.56l.464-.731c2.36-3.722,2.788-9.144,1.093-13.831A15.735,15.735,0,0,0,53.98,7.922m18.661,2.724c-2.439,1.643-2.742,2.115-1.979,3.085.557.707,1.177.574,2.924-.628,2.682-1.847,3.081-2.689,1.637-3.458-.566-.3-.758-.227-2.582,1m-13.589.06a13.487,13.487,0,0,1,8.939,18.685l-.468,1.033-.362-.382c-.2-.21-2.135-2.663-4.3-5.451S58.78,19.4,58.608,19.25c-.289-.252-.891-.273-7.773-.273h-7.46l.325-.741a13.6,13.6,0,0,1,7.7-7.122,18.044,18.044,0,0,1,3.339-.78,16.185,16.185,0,0,1,4.309.372M34.27,12.778c-1.14.866-.638,1.689,1.757,2.879,2.64,1.312,3.587,1.24,3.587-.272,0-1.156-4.417-3.311-5.344-2.607m42.01,8.138c-2.33.213-2.667.39-2.667,1.4,0,1.039.479,1.237,2.683,1.11,3.087-.178,3.555-.366,3.555-1.425,0-1.192-.567-1.365-3.572-1.09M27.449,23.383l2.544,3.274,1.063,1.367H23l-2.339-2.985c-1.287-1.642-2.431-3.115-2.543-3.275-.2-.28-.07-.29,3.821-.288l4.025,0,1.482,1.907M38.82,24.709l2.53,3.236-3.4.042c-1.869.023-3.476.012-3.571-.024s-1.3-1.511-2.69-3.278l-2.518-3.212H36.29l2.53,3.236m10.3-.049c1.377,1.753,2.5,3.227,2.5,3.275a34.625,34.625,0,0,1-3.487.088H44.649l-2.411-3.08c-1.326-1.694-2.463-3.168-2.527-3.275-.091-.154.628-.2,3.394-.2h3.51l2.5,3.187m10.474-.122c1.32,1.686,2.457,3.16,2.525,3.275.1.174-.5.21-3.51.21H54.975l-2.339-2.99c-1.286-1.645-2.43-3.118-2.542-3.275-.2-.273-.059-.285,3.448-.285h3.652l2.4,3.065M35.4,33.545c1.377,1.75,2.5,3.224,2.5,3.275s-1.777.093-3.948.093H30L27.6,33.847c-1.324-1.686-2.464-3.16-2.532-3.275-.1-.173.565-.21,3.852-.21h3.977l2.5,3.182m9.6-.959c.943,1.216,2.088,2.687,2.543,3.269l.828,1.058H41.252l-2.339-2.992c-1.287-1.646-2.431-3.119-2.543-3.275-.2-.271-.055-.283,3.353-.277l3.557.007,1.716,2.21m10.693.457c1.153,1.474,2.295,2.948,2.538,3.275l.442.594-3.562-.01-3.562-.01-2.535-3.265-2.534-3.266h7.116l2.1,2.681m10.205-.465c.944,1.214,2.089,2.685,2.546,3.27l.83,1.064H61.938l-2.506-3.2c-1.378-1.759-2.506-3.233-2.506-3.275s1.632-.075,3.626-.073l3.626,0,1.716,2.207m6.172-1.338c-.807,1.026-.44,1.526,1.988,2.708,2.615,1.274,3.616,1.167,3.616-.386,0-.653-.19-.8-2.4-1.851-2.117-1.008-2.714-1.1-3.206-.471m-59.588,6.89a7.392,7.392,0,0,0-5.286,5.612,58.848,58.848,0,0,0-.172,6.016v5.19l.361.339c.559.525,13.762.535,14.236.011.352-.389.524-8.472.231-10.869a7.427,7.427,0,0,0-9.369-6.3M70.65,46.4v6.989l-.777.2a8.239,8.239,0,0,0-4.371,3.6c-.719,1.41-.818,1.895-.916,4.508l-.1,2.561-1.092.216a11.423,11.423,0,0,0-7.1,5.15c-.509.908-.583.972-1.1.974-3.4.01-6.989,2.787-7.566,5.861l-.1.535H30.568V39.408H70.65V46.4m-57.394.419v6.316H9.5l.048-4.562.048-4.562.434-.824c.656-1.246,2.255-2.62,3.114-2.677.064,0,.117,2.835.117,6.309m3.854-5.672c1.981,1.225,2.271,2.16,2.348,7.583l.062,4.406H15.752V40.508l.427.162a6.739,6.739,0,0,1,.931.474m30.334,4.464c-.331.287-4.867,12.2-4.867,12.779,0,.88.505,1.128,2.395,1.175l1.756.044-1.01,5.269-1.01,5.269.31.415a1.228,1.228,0,0,0,1.505.45C47.162,70.738,58.8,55.136,58.8,54.551c0-.979-.387-1.175-2.49-1.262l-1.895-.078,1.348-2.261c3.512-5.89,3.67-5.615-3.22-5.615-4.331,0-4.812.026-5.1.273m7.116,2.35c-.029.07-.841,1.462-1.806,3.092-2.5,4.218-2.422,4.734.685,4.734h1.618l-3.315,4.427c-1.823,2.435-3.336,4.408-3.362,4.385s.2-1.333.507-2.911c.861-4.464.849-4.5-1.63-4.5a5.829,5.829,0,0,1-1.56-.107c0-.059.712-2.006,1.582-4.328s1.64-4.379,1.712-4.572c.128-.346.171-.351,2.876-.351a13.932,13.932,0,0,1,2.694.128M19.5,69.977v7.018H9.514V62.958H19.5v7.018m36.959,3.366a5.223,5.223,0,0,1,3.319,2.808c.443.911.783.853-4.77.807l-4.933-.041.374-.806a5.1,5.1,0,0,1,6.01-2.768" transform="translate(0 0)" fill="#153b19" fill-rule="evenodd"/>
  </g>
</svg>
