<svg xmlns="http://www.w3.org/2000/svg" width="62.957" height="80" viewBox="0 0 62.957 80">
  <g id="svgg" transform="translate(-42.608 -0.018)">
    <path id="path0" d="M70.84.273a2.14,2.14,0,0,0-.769.689,1.963,1.963,0,0,1-.973.7A15.232,15.232,0,0,0,59.156,14.41l-.1,1.036-.615.082c-1.965.264-2.966,3.558-1.766,5.815l.4.751-.346.8A5.6,5.6,0,0,0,60.7,30.329l.942.258.191.925a12.3,12.3,0,0,0,3.893,6.712l.86.735v2.863l-7.773,3.025c-9.375,3.649-9.555,3.736-11.289,5.476-2.657,2.666-3.313,4.419-3.4,9.087-.061,3.216-.062,3.223-.437,3.424-1.484.794-1.412,6.939.086,7.414.285.09.3.3.347,3.967l.047,3.872.429.562a5.332,5.332,0,0,0,.938.925l.508.362,18.62.041,18.62.041L83.6,79.6c.913-1.161.189-1.909-1.905-1.968l-1.591-.044L78.82,65.2,77.531,52.8l.382-.563c.359-.529.428-.56,1.132-.523,1.1.058,1.25-.035,4.455-2.7,1.612-1.34,3-2.436,3.079-2.436.37,0,10.019,3.827,10.764,4.269,2.91,1.728,4.242,4.567,4.242,9.045v2.623H94.711v-2.82c0-3.435-.33-4.07-1.772-3.413-.726.331-.728.366-.728,11.162V77.67H89.867c-2.67,0-2.969.118-2.969,1.172,0,1.23-.3,1.186,7.934,1.137l7.3-.044.508-.362a5.332,5.332,0,0,0,.938-.925l.429-.562.047-3.872c.044-3.663.063-3.877.347-3.967,1.5-.476,1.57-6.62.086-7.414-.375-.2-.376-.206-.432-3.424-.081-4.626-.754-6.422-3.408-9.088C98.915,48.579,98.849,48.547,89.7,45c-4.249-1.646-7.813-3.027-7.92-3.07-.137-.055-.2-.514-.2-1.527V38.958l.848-.724a12.941,12.941,0,0,0,3.782-6.267c.143-.6.281-1.178.307-1.281s.314-.235.641-.293c3.544-.635,5.762-4.835,4.175-7.9-.2-.391-.187-.492.169-1.163,1.191-2.24.182-5.536-1.775-5.8l-.615-.082-.1-1.036A15.214,15.214,0,0,0,79.074,1.667,1.958,1.958,0,0,1,78.1.96C77.618.143,77.063.014,74.062.018c-2.174,0-2.812.053-3.222.256M76.117,5.42c.083,3.183.133,3.382.89,3.572,1.207.3,1.61-.421,1.61-2.892A10.6,10.6,0,0,1,78.7,4.233a7.5,7.5,0,0,1,.9.412,12.772,12.772,0,0,1,6.918,9.94l.1.9h-8V14.176c0-1.608-.3-2.13-1.212-2.13-1.013,0-1.288.439-1.288,2.059v1.379H72.055V9.024c0-3.552.049-6.507.109-6.567a9.943,9.943,0,0,1,1.992-.065l1.884.044.078,2.984M69.555,9.858v5.625h-8l.1-.9a12.7,12.7,0,0,1,6.707-9.828,8.02,8.02,0,0,1,1.075-.52c.064,0,.117,2.528.117,5.622m19.812,9.18-.046,1.055H58.852l-.046-1.055-.046-1.055H89.413l-.046,1.055m-27.781,6.2v2.72L61,27.775c-2.646-.807-2.875-5.261-.271-5.261h.857v2.72m22.465,1.46c-.065,4.7-.164,5.237-1.328,7.214A10.121,10.121,0,0,1,65.447,33.9c-1.159-1.953-1.261-2.5-1.326-7.2l-.058-4.18H84.109l-.058,4.18m4.671-3.671c1.259,1.881.509,3.947-1.744,4.8l-.392.149V22.514h.9c.839,0,.921.035,1.238.508M71.561,41.041a14.8,14.8,0,0,0,7.018-.486l.508-.212v1.821l-1.875,1.581-1.875,1.582H74.027c-1.008,0-1.356-.057-1.516-.249-.114-.137-.931-.85-1.816-1.585l-1.609-1.335V40.34l.664.238a15.629,15.629,0,0,0,1.811.462m-2.553,4.37a13.4,13.4,0,0,1,1.457,1.321,9.275,9.275,0,0,1-1.575,2.34,57.1,57.1,0,0,1-4.451-3.681c.089-.089,2.845-1.138,3.007-1.145a10.175,10.175,0,0,1,1.562,1.165m13.25-.574,1.531.6L81.53,47.328l-2.258,1.889-.828-1.262-.828-1.262.611-.489c.336-.269,1-.82,1.478-1.225,1.042-.885.718-.867,2.554-.144m-14.517,6.6a2.159,2.159,0,0,0,1.334.267c.825-.034.859-.018,1.22.553l.372.587L69.374,65.259,68.081,77.67H55.961V67.443c0-10.8,0-10.831-.728-11.162-1.442-.657-1.772-.022-1.772,3.413v2.82H46.586V59.89c0-6.471,1.422-8.108,9.921-11.418l5.143-2,2.8,2.335c1.542,1.284,3.021,2.47,3.288,2.636m8.12-2.758c.688,1.036.687,1.024.093,1.888l-.476.692h-2.8l-.465-.734c-.579-.912-.583-.842.121-1.856l.586-.844,1.189,0,1.189,0,.569.857m-.606,6.42c.141,1.69.2,1.675-1.16.31-1.41-1.419-1.4-1.649.046-1.649h1l.112,1.339m.61,6.067c.047.267.131,1.047.187,1.735l.1,1.25L74.26,62.282c-1.723-1.7-1.886-1.915-1.821-2.344.039-.259.116-.885.17-1.392l.1-.921,1.535,1.53c1.1,1.094,1.56,1.668,1.621,2.014m.778,7.5c.045.266.128.976.185,1.577l.1,1.094-2.588-2.571c-1.982-1.968-2.573-2.646-2.524-2.891.036-.176.11-.734.165-1.241l.1-.921,2.239,2.235c1.677,1.674,2.259,2.356,2.321,2.718M53.461,66.5v1.484H45.18V65.014h8.281V66.5m49.531,0v1.484H94.711V65.014h8.281V66.5M77.465,76.537l.1,1.133h-.532c-.481,0-.787-.257-3.207-2.7l-2.675-2.7.13-1.094c.071-.6.134-1.234.138-1.406.006-.223.852.533,2.973,2.656L77.361,75.4l.1,1.133m-24-2.452v3.6l-3.18-.048c-4.089-.062-3.7.344-3.7-3.817v-3.34h6.875v3.6m48.125-.262c0,4.162.393,3.755-3.7,3.817l-3.18.048V70.483h6.875v3.34M71.9,76.654l1.006,1.016H71.777c-1.264,0-1.266,0-1.028-1.445.118-.712-.04-.771,1.15.43" fill="#153b19" fill-rule="evenodd"/>
  </g>
</svg>
