<svg xmlns="http://www.w3.org/2000/svg" width="82.092" height="80" viewBox="0 0 82.092 80">
  <g id="svgg" transform="translate(0.459 -4.823)">
    <path id="path0" d="M28.928,4.958a14.153,14.153,0,0,0-10.25,7,4.056,4.056,0,0,1-1.351,1.313c-2.775,1.809-3.5,3.305-2,4.147.562.315,1.1.143,2.007-.639a16.478,16.478,0,0,1,1.349-1.048l.59-.391,1.077.815a14.038,14.038,0,0,0,20.894-4.521c.693-1.3.591-1.743-.665-2.906A14.156,14.156,0,0,0,28.928,4.958m5.2,3.107a12.083,12.083,0,0,1,3.808,2.044l.622.539-.285.554a13.639,13.639,0,0,1-3.812,3.589,11.256,11.256,0,0,1-11.875-.449l-.588-.4,1.515-.486A34.662,34.662,0,0,1,32.5,12c2.075,0,3.081-1.188,1.989-2.35-.722-.769-6.895-.284-10.851.853-.355.1-.338.063.16-.365a11.561,11.561,0,0,1,6.079-2.526,13.163,13.163,0,0,1,4.254.457M49.25,16.011a14.226,14.226,0,0,0-8.605,4.62c-.908,1.131-.969,1.133-2.78.076-1.428-.834-1.771-.868-2.4-.241q-1.7,1.7,2.774,3.55a5.932,5.932,0,0,1,2.294,1.652c5.994,6.092,16.086,5.59,21.1-1.05,1.572-2.081,1.51-2.463-.759-4.692A13.709,13.709,0,0,0,49.25,16.011m4.784,3.048a11.618,11.618,0,0,1,4.433,2.357c1.361,1.147,1.358,1.127.353,2.19a11.113,11.113,0,0,1-12.838,2.582l-1.1-.509,3.5-.011c5.8-.019,7.579-.45,7.579-1.839,0-1.406-.386-1.5-4.321-1.043a31.432,31.432,0,0,1-7.949-.084l-1.042-.181.695-.712a11.17,11.17,0,0,1,10.689-2.749M2.973,21.829c-.945.642-1.1,1.266-1.094,4.452,0,3.69.519,4.757,2.3,4.757h.581v45.4l-1.075.11c-3.928.4-5.565,4.869-2.666,7.272,1.267,1.05-.68.99,30.924.945l28.692-.041.306-.378a1.533,1.533,0,0,0,0-1.8l-.306-.378-28.724-.08L3.181,82l-.413-.388a1.262,1.262,0,0,1-.02-1.86l.393-.393H78.058l.393.393a1.263,1.263,0,0,1-.02,1.86L78.018,82l-7.122.08-7.122.08-.306.378a1.355,1.355,0,0,0,.444,2.076c.567.3,13.832.258,14.863-.049,4.439-1.324,3.466-7.536-1.256-8.019l-1.075-.11V56.975c0-21.521.074-20.057-1.021-20.263-.459-.086-1.608.392-8.4,3.494L59.161,43.8V40.637c0-5.086.629-5.057-9.441-.431L41.96,43.773l-.08-3.223c-.123-4.953.634-4.92-9.261-.4-4.254,1.942-7.762,3.531-7.8,3.531a10.184,10.184,0,0,1-.064-1.605c0-2.493-.628-3.379-1.992-2.809-.918.384-.888-.261-.888,19.24V76.483H7.476V31.038h14.4v2.52c0,2.882.178,3.526,1.04,3.768,1.437.4,1.84-.43,1.84-3.8V31.038h.52c1.7,0,2.193-1.089,2.193-4.8,0-5.23,1.149-4.8-12.8-4.8H3.55l-.577.392m21.784,4.409v2.08H4.6v-4.16H24.758v2.08M73.723,58.321V76.483H59.16L59.2,61.649l.041-14.834,7.2-3.311,7.241-3.328c.022-.009.04,8.156.04,18.145m-34.564.08V76.483h-14.4V46.79l7-3.217c3.85-1.769,7.091-3.225,7.2-3.235.159-.014.2,3.7.2,18.064m17.282,0V76.483H41.878l.041-14.829.041-14.828L49,43.588c3.872-1.781,7.131-3.245,7.241-3.254.159-.012.2,3.7.2,18.067m-29.3-4.978a1.461,1.461,0,0,0-.013,1.977c.514.514,9.047.571,9.607.064a1.462,1.462,0,0,0-.221-2.244c-.735-.282-8.994-.1-9.372.2m17.213.09a1.253,1.253,0,0,0-.007,1.8l.386.449,4.054.051c5.29.066,6.133-.22,5.554-1.881-.273-.783-.448-.81-5.177-.81H44.745l-.393.393m17.221.029a1.326,1.326,0,0,0,.081,1.831c.479.451,7.761.7,9.081.308a1.373,1.373,0,0,0,.421-2.4,37.788,37.788,0,0,0-4.772-.157H61.9l-.332.422M27.355,57.388c-.58.233-.677.912-.677,4.747v3.75l.447.856a3.1,3.1,0,0,0,1.228,1.339l.78.483h2.813c3.544,0,4.48-.442,5.057-2.384.623-2.1.265-8.508-.491-8.8-.308-.118-8.862-.111-9.157.008m17,.286-.393.393v7.819l.447.856c.792,1.516,1.486,1.809,4.432,1.875,5.038.112,5.682-.656,5.682-6.772,0-4.921.432-4.551-5.328-4.558l-4.448,0-.393.393m17.272.01-.4.4.05,4.144.05,4.145.487.694c1.363,1.94,7.172,2.316,8.828.57,1.065-1.122,1.086-1.231,1.086-5.584V58.107l-.388-.413-.388-.413h-8.92l-.4.4M34.519,62.642c0,3.412.1,3.28-2.56,3.28s-2.56.132-2.56-3.28V60h5.121v2.64m17.252.093c-.062,3.366.079,3.187-2.526,3.187-2.69,0-2.565.156-2.565-3.209V60h5.141l-.05,2.734m17.151-.025c0,3.4.137,3.212-2.376,3.212-2.712,0-2.584.158-2.584-3.209V60h4.96V62.71" transform="translate(0)" fill="#153b19" fill-rule="evenodd"/>
  </g>
</svg>
