<svg xmlns="http://www.w3.org/2000/svg" width="80.003" height="80" viewBox="0 0 80.003 80">
  <g id="svgg" transform="translate(0.01 0.003)">
    <path id="path0" d="M4.367.31c-.3.3-.312.521-.312,6.549v6.236l-1.7.053c-2.516.078-2.36-.216-2.36,4.441v3.793L.4,21.7c.356.28.629.324,2.031.324h1.62V50.7c0,28.463,0,28.674.312,28.984S4.888,80,39.992,80s35.314,0,35.625-.312.312-.521.313-28.984V22.029h1.619c1.4,0,1.675-.043,2.031-.324l.412-.324V17.588c0-4.657.157-4.363-2.36-4.441l-1.7-.053V6.859c0-6.028-.01-6.247-.312-6.549S75.1,0,51.488,0H27.671l-.324.412a1.092,1.092,0,0,0,0,1.52l.324.412H73.429V13.122H6.555V2.341h8.437c9.507,0,9.062.057,9.062-1.172S24.618,0,14.055,0C4.888,0,4.673,0,4.367.31M77.648,17.576v1.953H62.321l-.384.384a1.1,1.1,0,0,0-.283,1.3c.206.769.561.814,6.377.814h5.4V71.247h-2.5V52.753c0-18.474,0-18.495-.324-18.906l-.324-.412H57.42c-12.431,0-12.874.01-13.231.3l-.369.3L43.779,52.64l-.041,18.607H34.07c-10.827,0-10.24-.063-10.429,1.121a.884.884,0,0,0,.31.976l.4.4H73.429v3.906H6.555V73.747h6.619c6.46,0,6.63-.008,7.031-.324a1.185,1.185,0,0,0,.028-1.793l-.383-.384H6.555V22.031l25.717-.04,25.717-.04.3-.369a1.314,1.314,0,0,0-.041-1.691l-.34-.362H2.336V15.622H77.648v1.953m-54.3,8.587a1.171,1.171,0,0,0,0,1.733l.384.383H56.256l.384-.383a1.171,1.171,0,0,0,0-1.733l-.384-.384H23.728l-.384.384M9.379,33.846c-.511.649-.511,27.433,0,28.083l.324.412H40.594l.324-.412c.511-.649.511-27.433,0-28.083l-.324-.412H9.7l-.324.412M38.742,47.888V59.841H11.555V35.935H38.742V47.888m29.687,5.7V71.247H46.242V35.935H68.429V53.591M16.014,39.852c-1.985,1.92-2.391,3.017-1.328,3.586,1.256.672,5.033-2.808,4.518-4.163-.507-1.333-1.379-1.175-3.19.576m5.932,1.391c-.937.394-5.078,4.943-5.078,5.578a1.123,1.123,0,0,0,1.072,1.243c.728.146,5.8-4.826,5.8-5.684a1.243,1.243,0,0,0-1.8-1.137m27.265,9.536c-.286.286-.313.521-.313,2.8v2.489l.412.324a1.226,1.226,0,0,0,2.019-.67c.272-1.084,0-4.652-.377-4.958a1.419,1.419,0,0,0-1.74.014" transform="translate(0 0)" fill="#153b19" fill-rule="evenodd"/>
  </g>
</svg>
