<svg xmlns="http://www.w3.org/2000/svg" width="80.035" height="80" viewBox="0 0 80.035 80">
  <g id="svgg" transform="translate(0.482 0.081)">
    <path id="path0" d="M62.233.346a1.237,1.237,0,0,0,1.791,1.7A1.338,1.338,0,0,0,64.1.247a1.343,1.343,0,0,0-1.862.1m2.826,2.6a1.434,1.434,0,0,0-.027,1.825,1.442,1.442,0,0,0,1.747.039c1.095-1.275-.575-3.083-1.72-1.864M61.8,3.335a1.348,1.348,0,0,0-.5,2.26c1.064.87,2.53-.506,1.864-1.75A1.505,1.505,0,0,0,61.8,3.335M17.1,16.062a1.313,1.313,0,0,0,.237,2.3,1.409,1.409,0,0,0,1.484-.475A1.3,1.3,0,0,0,17.1,16.062m3.35.338a1.228,1.228,0,0,0,.85,2.115,1.2,1.2,0,0,0,1.265-1.271A1.221,1.221,0,0,0,20.45,16.4m-1.428,3.053a1.328,1.328,0,0,0-.764,1.465,1.227,1.227,0,0,0,2.434-.289c0-.528-.424-1.178-.768-1.178a1.413,1.413,0,0,1-.351-.068,1,1,0,0,0-.55.07m13.05,2.514a1.209,1.209,0,0,0-.441,1.913l.324.411h6.379V69.413H19.286c-21.56,0-19.672-.118-19.672,1.225,0,1.324-3.651,1.2,33.988,1.2H66.934l.3-.369a1.417,1.417,0,0,0-.014-1.739c-.307-.307-.52-.312-13.349-.312H40.832V24.291h6.379l.324-.411a1.193,1.193,0,0,0-.5-1.923c-.6-.211-14.384-.2-14.96.01m38.634,1.617a1.423,1.423,0,0,0,.109,2.116,1.253,1.253,0,1,0-.109-2.116m3.922-.085a1.3,1.3,0,0,0-.314,2.152,1.151,1.151,0,0,0,1.958-.957A1.18,1.18,0,0,0,74.629,23.5m-2.144,3.485a1.409,1.409,0,0,0-.061,2.073,1.249,1.249,0,1,0,.061-2.073M10.658,29.613a5.351,5.351,0,0,0-3.526,2.93l-.413.882V63.09l.406.866a4.812,4.812,0,0,0,2.454,2.527l1.037.511h8.122c7.994,0,8.134-.005,8.852-.337a6.3,6.3,0,0,0,2.6-2.467l.415-.787.042-14.857c.042-14.7.039-14.866-.282-15.722a5.688,5.688,0,0,0-2.617-2.863l-.89-.437-4.22-.05c-4.858-.057-5.07-.007-5.07,1.205s.174,1.264,4.538,1.268c4.608,0,5.327.219,5.912,1.763a20.032,20.032,0,0,1,.038,4.791,12.341,12.341,0,0,1-1.255-.383c-5.2-1.769-12.437-1.64-17.092.3l-.6.25.053-2.4c.08-3.611.713-4.329,3.815-4.329,2.066,0,2.745-.52,2.248-1.721-.307-.742-2.665-1.055-4.568-.607m41.528,0a5.372,5.372,0,0,0-3.414,2.878l-.445.937V48.179c0,13.671.019,14.811.273,15.527a6.155,6.155,0,0,0,2.731,2.915l.821.371H68.389l.882-.413a5.156,5.156,0,0,0,2.941-3.868c.215-1.136.215-27.773,0-28.909a5.264,5.264,0,0,0-2.964-3.876l-.859-.405-7.807-.027c-4.293-.015-8.072.037-8.4.116m16.324,2.8c1.074.736,1.278,1.336,1.338,3.934l.053,2.292-1.13-.393a26.523,26.523,0,0,0-16.562-.125,12.322,12.322,0,0,1-1.256.383c-.235,0-.153-4.5.091-4.965.822-1.579.9-1.592,9.472-1.55l7.428.036.566.388M23.1,39.747a28.105,28.105,0,0,1,2.8.723l1.245.415-.48.408c-.264.224-.788.668-1.165.985l-.685.578-.852-.422-.852-.421H14.368l-.9.421-.9.421L11.464,41.9l-1.107-.955.4-.208c2.41-1.263,8.51-1.751,12.349-.989m41.246-.082A25.514,25.514,0,0,1,68.395,40.8c.195.109.025.325-.858,1.093l-1.1.957-.9-.42-.9-.42H55.9l-.853.422-.853.422-.474-.378c-.261-.208-.787-.653-1.17-.99l-.7-.612,1.52-.487a28,28,0,0,1,4.791-1.013,34.875,34.875,0,0,1,6.186.287M10.465,44.411l.554.487-.159.977a14.318,14.318,0,0,0-.16,1.875v.9H9.138V43.316l.386.3c.212.167.636.523.94.79m17.721,1.583v2.654H26.624L26.609,47.2a10.577,10.577,0,0,0-.136-1.834c-.1-.327,1.247-1.957,1.674-2.024.022,0,.039,1.188.039,2.648m41.687,0v2.654H68.155V47.174a8.658,8.658,0,0,0-.144-1.852c-.122-.32,1.4-1.984,1.819-1.984.023,0,.042,1.194.042,2.654M51.834,44.214c.787.679.825.746.692,1.209a9.835,9.835,0,0,0-.14,1.857v1.367H50.825V46.071a18.914,18.914,0,0,1,.089-2.576,6.618,6.618,0,0,1,.921.719m-28.7.644c.924.659,1,1.019,1,5.064,0,5.528.057,5.474-5.649,5.405-5.239-.063-5.176-.007-5.256-4.689-.106-6.236-.119-6.222,5.674-6.165,3.6.035,3.767.051,4.235.385M64.4,44.705c1.191.6,1.252.851,1.252,5.191,0,5.589.124,5.464-5.389,5.464-5.5,0-5.384.114-5.384-5.464s-.123-5.464,5.386-5.464c3.107,0,3.664.037,4.134.273M10.753,52.681a11.591,11.591,0,0,0,.276,2.038,1.177,1.177,0,0,1,.114.533c-.034.017-.5.45-1.033.963l-.972.932v-6h1.514l.1,1.535m17.433,1.38v2.916l-.429-.375c-.236-.206-.687-.613-1-.9l-.572-.529.221-.626a7.719,7.719,0,0,0,.221-2.011V51.146h1.561v2.916M52.393,52.59a8.445,8.445,0,0,0,.215,2.027l.208.583-1,.874-1,.874v-5.8h1.561l.007,1.444m17.48,1.534V57.1l-1.017-.91c-.872-.78-1-.966-.92-1.3a18.912,18.912,0,0,0,.172-2.069l.075-1.678h1.69v2.979M18.74,57.781c4.1,0,4.415-.02,5.074-.325l.7-.325,1.215,1.093c1.437,1.293,1.459,1.249-.911,1.743-4.621.962-8.277.873-13.848-.336-.6-.131-.57-.193.736-1.433l1.165-1.107.748.345c.715.33.938.345,5.119.345m41.531,0c4.148,0,4.409-.017,5.1-.337l.728-.337L67.284,58.2c1.406,1.3,1.414,1.266-.418,1.669-4.786,1.053-11.3.911-14.45-.315L52,59.391l1.234-1.137,1.234-1.137.717.332c.677.313.961.332,5.089.332M10.827,62.143a33.3,33.3,0,0,0,15.76,0c1.709-.433,1.673-.441,1.526.351a3.215,3.215,0,0,1-1.954,1.974c-1.517.3-14.726.107-15.421-.229a2.948,2.948,0,0,1-1.52-1.972c-.125-.606-.253-.6,1.609-.127m41.589,0a33.117,33.117,0,0,0,15.712.007c.885-.214,1.64-.389,1.679-.389.149,0-.143.886-.5,1.507-.749,1.313-.677,1.3-9,1.3-8.361,0-8.439-.014-9.264-1.593-.187-.357-.312-1.218-.178-1.218.024,0,.72.172,1.549.382m17.624,7.68a1.094,1.094,0,0,0,.053,1.571l.377.438h4.213c4.8,0,4.87-.017,4.87-1.2,0-1.216-.037-1.225-4.907-1.225H70.364l-.324.411M-.128,77.817a1.622,1.622,0,0,0,.027,1.8c.467.422,79.012.4,79.394-.027a1.622,1.622,0,0,0-.027-1.8c-.467-.422-79.012-.4-79.394.027" transform="translate(0 0)" fill="#153b19" fill-rule="evenodd"/>
  </g>
</svg>
