<svg xmlns="http://www.w3.org/2000/svg" width="72.737" height="80" viewBox="0 0 72.737 80">
  <g id="svgg" transform="translate(-18.055 0.012)">
    <path id="path0" d="M52.4.42c-.585.312-4.892,4.41-15.8,15.029L20.159,31.459a5.889,5.889,0,0,0-1.785,2.309,4.487,4.487,0,0,0,7.206,4.954l.578-.507V54.865c0,15.722-.015,16.656-.273,16.736-1.762.545-1.912.875-1.911,4.2,0,2.917.08,3.212,1.036,3.842.7.461,58.125.461,58.824,0,.956-.63,1.035-.924,1.036-3.842,0-3.325-.149-3.654-1.911-4.2-.258-.08-.273-1.014-.273-16.736V38.214l.578.507a4.488,4.488,0,0,0,7.215-4.929c-.324-.867-2.527-3.162-8.456-8.811l-1.21-1.153V15.94l-.411-.324c-1.423-1.119-1.992-.308-2.087,2.975l-.078,2.7-3.006-2.942L72.221,15.41V8.423h6.09V9.836c0,1.91.307,2.491,1.319,2.491.916,0,1.179-.5,1.179-2.257V8.459l.676-.17c1.647-.415,1.858-.924,1.794-4.336C83.2-.258,83.7-.01,75.32-.009c-8.439,0-8.094-.174-8.1,4.1,0,3.218.312,3.884,1.99,4.243l.508.109v4.541l-3.91-3.805C56.024-.345,56.452,0,54.4-.006a3.319,3.319,0,0,0-2,.426M56.97,4.177c9.813,9.5,30.7,29.856,30.944,30.16a1.977,1.977,0,0,1-2.223,2.948c-.28-.118-7.044-6.582-15.5-14.81C55.094,7.783,54.739,7.459,54.036,7.729c-.211.081-7.135,6.717-15.387,14.747-8.468,8.241-15.219,14.691-15.5,14.81a1.977,1.977,0,0,1-2.224-2.948c.244-.3,21.131-20.661,30.944-30.16l1.745-1.689h1.61L56.97,4.177m23.84.029V5.924H69.723V2.489H80.81V4.206M67.381,23.3l12.8,12.46V71.507H53.015V55.228c0-20.012.612-17.762-4.832-17.762-3.754,0-3.911.049-3.911,1.225,0,1.1.238,1.188,3.451,1.244l2.795.049v3.1H34.9V39.964h2.724c2.641,0,2.737-.011,3.154-.37a1.227,1.227,0,0,0,.07-1.836c-.569-.461-6.717-.441-7.479.024-1.014.618-.967-.244-.967,17.558V71.507H28.656V35.761L41.5,23.264c7.064-6.874,12.9-12.48,12.96-12.459s5.879,5.645,12.921,12.5M56.809,37.772c-1.047.638-.993-.224-.947,15.218L55.9,66.958l.462.482c.764.8.917.809,10.106.758,8.351-.047,8.547-.055,8.979-.371,1.04-.763.987.05.987-15.023,0-15.012.039-14.407-.966-15.02-.793-.484-17.869-.493-18.662-.01m17.13,3.754v1.561H58.324V39.964H73.939v1.562M50.517,58.546v12.96H34.9V45.586H50.517v12.96m14.366-8.588V54.33H58.324V45.586h6.558v4.372m9.057,0V54.33H67.381V45.586h6.558v4.372m-30.1,3.764a3.586,3.586,0,1,0,4.8,1.545,3.678,3.678,0,0,0-4.8-1.545m2.506,2.667a.685.685,0,0,1,.119.884,1.031,1.031,0,1,1-.119-.884m18.535,4.89v4.45H58.324v-8.9h6.558v4.45m9.057,0v4.45H67.381v-8.9h6.558v4.45M82.371,75.8v1.8H26.47V74.005h55.9v1.8" transform="translate(0 0)" fill="#153b19" fill-rule="evenodd"/>
  </g>
</svg>
