<svg xmlns="http://www.w3.org/2000/svg" width="80.088" height="80" viewBox="0 0 80.088 80">
  <g id="svgg" transform="translate(0.401 0.329)">
    <path id="path0" d="M17.05-.046a6.554,6.554,0,0,0-4.343,4.985c-.084.446-.181.573-.441.576-1.086.011-2.745,1.342-3.4,2.728A4.968,4.968,0,0,0,11.2,14.83l.89.437H25.824l.823-.372a5.034,5.034,0,0,0,1.32-8.158,4.573,4.573,0,0,0-2.321-1.223c-.26,0-.358-.13-.441-.576A6.492,6.492,0,0,0,17.05-.046M20.673,2.69A3.683,3.683,0,0,1,22.78,6c0,1.319.481,1.857,1.655,1.857a2.514,2.514,0,0,1,.95,4.829,121.365,121.365,0,0,1-12.857,0,2.516,2.516,0,0,1,.921-4.831c1.212,0,1.682-.493,1.684-1.746a3.8,3.8,0,0,1,5.54-3.415M48.366,8.235c-7.432,2.05-7.651,12.725-.309,15.09l1.065.343L49.2,24.7a5.245,5.245,0,0,0,3.052,4.435c.881.407,11.877.615,13.913.264,5.136-.887,5.662-8.167.7-9.613-.764-.223-.8-.262-.9-.873-1.046-6.544-11.5-6.538-12.378.007-.08.6-.131.655-.729.815a4.553,4.553,0,0,0-2.039,1.09l-.542.476-.982-.248a5.337,5.337,0,1,1,4.77-9.15c1.166,1.064,1.548,1.155,2.275.543,2.344-1.972-3.971-5.31-7.963-4.209m13.087,8.543a4.147,4.147,0,0,1,2.148,3.6c.135,1.232.413,1.526,1.572,1.663,3.072.362,3.686,4.045.807,4.846-1.4.391-12.417.158-13.117-.277-2.171-1.35-1.3-4.219,1.383-4.552,1.285-.159,1.627-.468,1.627-1.47a3.91,3.91,0,0,1,5.581-3.808M16.693,28.791c-3.061.315-3.59.556-3.59,1.634,0,1.213.4,1.3,4.058.844,8.473-1.05,19.112,1.43,27.979,6.52,1.791,1.028,1.766.97.624,1.429a52.846,52.846,0,0,0-11.356,6.7l-1.561,1.259-16.174,0c-18.359,0-17-.1-17,1.236,0,1.022.433,1.265,2.254,1.265H3.464l-1.775,1.42C-.5,52.86-.729,53.248-.087,54.165c.676.965.973.83,4.664-2.124l2.945-2.356H11.14l-.715.741C3.685,57.418-.321,61.914-.321,62.487c0,1.449,1.377,1.661,2.56.393.438-.469,3.4-3.629,6.572-7.02l5.775-6.167,1.683,0,1.683,0-.6.82C7.222,64.221-.238,74.649-.292,75.159a1.165,1.165,0,0,0,2.1.867c.245-.279,4.683-6.32,9.863-13.424l9.417-12.917H22.4a6.2,6.2,0,0,1,1.314.071c0,.039-3.3,6.408-7.336,14.153C8.691,78.672,8.689,78.676,9.357,79.343a1.464,1.464,0,0,0,1.737.055c.118-.141,3.656-6.867,7.863-14.946l7.649-14.689,1.421-.045,1.421-.045L25.022,63.837C19.969,80,20.04,79.655,21.793,79.655c.939,0,.894.12,5.674-15.209l4.6-14.756,1.495,0,1.495,0L35,50.115c-.314,2.521-2.858,27.687-2.858,28.272,0,.921.345,1.268,1.259,1.268,1.107,0,.964.82,2.579-14.779.807-7.8,1.506-14.4,1.553-14.683l.086-.507h1.554c.855,0,1.558.018,1.563.039s.7,6.64,1.548,14.707C44,80.744,43.8,79.655,45.006,79.655c.839,0,1.188-.368,1.188-1.253,0-.708-2.712-27.322-2.882-28.288l-.076-.429,1.518,0,1.518,0,4.6,14.752C55.655,79.8,55.6,79.655,56.548,79.655c1.753,0,1.824.349-3.229-15.819L48.892,49.675l1.421.045,1.421.045L56.281,58.5c5.182,9.95,5.258,10.054,6.471,8.841.669-.669.8-.351-3.836-9.264-2.361-4.538-4.292-8.281-4.292-8.318a7.184,7.184,0,0,1,1.391-.068h1.391L67.421,63.421c5.508,7.554,10.166,13.841,10.35,13.97A1.181,1.181,0,0,0,79.6,76.332c0-.5-4.323-6.554-18.05-25.28l-1-1.366,1.682.006,1.682.006,6.929,7.408c7.643,8.171,7.5,8.047,8.446,7.1.853-.853.741-1.019-4.386-6.478-2.58-2.747-5.325-5.68-6.1-6.517l-1.411-1.522h4.366L74.7,52.042c3.691,2.953,3.988,3.088,4.664,2.124.642-.917.417-1.306-1.775-3.059l-1.775-1.42h1.553c1.8,0,2.232-.245,2.232-1.274,0-1.247,1.97-1.136-21.65-1.224L36.954,47.11l1.927-1.271c11.726-7.734,25.92-9.748,37.9-5.375,1.634.6,2.071.609,2.5.07.891-1.132.311-1.822-2.218-2.64a44.222,44.222,0,0,0-25.505-.672l-1.745.474L48.274,36.69a50.2,50.2,0,0,0-31.581-7.9M7.093,30.9c-.343.135-1.257.492-2.029.792C.28,33.556-1.176,34.78.04,35.922c.543.51.984.426,3.093-.593,1.062-.512,2.771-1.25,3.8-1.64,2.133-.808,2.331-.955,2.331-1.739,0-1.09-.926-1.537-2.17-1.047M63.748,70.829c-.612.612-.489,1.024,1.431,4.754,2.09,4.063,2.1,4.072,2.863,4.072,1.758,0,1.663-.875-.559-5.164-2.212-4.27-2.675-4.723-3.735-3.662" transform="translate(0 0)" fill="#153b19" fill-rule="evenodd"/>
  </g>
</svg>
