<svg xmlns="http://www.w3.org/2000/svg" width="70" height="56" viewBox="0 0 70 56"><g><g clip-path="url(#clip-b96e5d2f-f672-4b8a-974b-f3cd43b8f622)"><path fill="#fff" d="M58.482 17.738a1 1 0 0 0-1.305-.318l-18.8 10.235a.998.998 0 0 0 .01 1.761l18.864 9.986a1 1 0 0 0 1.29-.315l6.885-9.95a1 1 0 0 0 .006-1.13z"/></g><g clip-path="url(#clip-b96e5d2f-f672-4b8a-974b-f3cd43b8f622)"><path fill="#fca01f" d="M69.417 5.638l-4.14-4.572a.665.665 0 0 0-.493-.22H36.468l-.027.001c-.65.027-.65.027-.654 4.206-.002 2.124 0 4.956.002 7.787.004 5.663.013 11.326.013 11.326a.666.666 0 0 0 .99.581l32.455-18.08a.666.666 0 0 0 .17-1.03"/></g><g clip-path="url(#clip-b96e5d2f-f672-4b8a-974b-f3cd43b8f622)"><path fill="#fff" d="M32.182.778H20.154a.668.668 0 0 0-.546.284l-7.854 11.222a.667.667 0 0 0 .213.959l19.88 11.5a.667.667 0 0 0 1-.577V1.443a.666.666 0 0 0-.665-.665"/></g><g clip-path="url(#clip-b96e5d2f-f672-4b8a-974b-f3cd43b8f622)"><path fill="#fff" d="M8.654 39.478a.999.999 0 0 0 1.33.354L29.085 29.41a.998.998 0 0 0 .022-1.742L9.667 16.402a.999.999 0 0 0-1.382.39L2.211 28.059a1 1 0 0 0 .029.998z"/></g><g clip-path="url(#clip-b96e5d2f-f672-4b8a-974b-f3cd43b8f622)"><path fill="#fff" d="M56.84 43.281L36.196 32.096a.666.666 0 0 0-.983.588c.02 8.516.029 21.378-.026 22.244a.664.664 0 0 0 .658.774h13.057c.22 0 .427-.108.55-.29l7.62-11.17a.664.664 0 0 0-.232-.96"/></g><g clip-path="url(#clip-b96e5d2f-f672-4b8a-974b-f3cd43b8f622)"><path fill="#fff" d="M31.587 32.036h-.008l-2.283.004a.667.667 0 0 0-.357.105L.308 50.43a.666.666 0 0 0-.2.925l2.62 4.027a.67.67 0 0 0 .557.303l28.288.012a.667.667 0 0 0 .666-.666l.008-22.262a.663.663 0 0 0-.66-.733"/></g></g></svg>